<?xml version="1.0" encoding="utf-8"?>
<!-- Generator: Adobe Illustrator 20.0.0, SVG Export Plug-In . SVG Version: 6.00 Build 0)  -->
<!DOCTYPE svg PUBLIC "-//W3C//DTD SVG 1.1//EN" "http://www.w3.org/Graphics/SVG/1.1/DTD/svg11.dtd" [
	<!ENTITY st0 "fill:#231F20;">
]>
<svg version="1.1" id="Layer_1" xmlns="http://www.w3.org/2000/svg" xmlns:xlink="http://www.w3.org/1999/xlink" x="0px" y="0px"
	 viewBox="0 0 412 158" style="enable-background:new 0 0 412 158;" xml:space="preserve">
<title>header_pattern</title>
<g id="Layer_2">
	<g id="Layer_1-2">
		<g id="Layer_2-2">
			<path style="&st0;" d="M412,13.7v-1.3l-9.9-4.1L398.9,0h-1.1v0.6l2.8,7.1l-8.2-3.4h-0.2c-0.1,0-0.2,0-0.3,0.1
				c-0.2,0.1-0.3,0.3-0.3,0.4l-1.5,9.6L384.5,8c-0.1-0.1-0.3-0.2-0.4-0.2l-8.4-0.7l8.2-6.1c0.2-0.1,0.3-0.3,0.2-0.5V0h-2l0.4,0.4
				l-8.6,6.5l-6.8-1l-3.3-5.5L364,0h-1.9l0.3,0.4l-3.2,5l-5.2,0l-3.1-5L351,0h-1.4v0.4c0,0.1,0,0.2,0.1,0.3l2.9,4.6h-6.1
				c-0.2,0-0.4,0.1-0.5,0.3l-2.4,4.8l-2.3-4.8c-0.1-0.2-0.3-0.3-0.5-0.3h-6.1l2.9-4.6c0.1-0.1,0.1-0.2,0.1-0.3V0H336l0.2,0.4l-3.1,5
				h-5.3L324.4,0h-0.9l-3.5,5.8l-7.1,0.9L304,0h-1.1v0.4c0,0.2,0.1,0.4,0.2,0.5l7.9,6l-8.5,0.7c-0.2,0-0.3,0.1-0.4,0.2l-5.2,6.8
				l-1.3-9.9c0-0.2-0.1-0.4-0.3-0.4c-0.1-0.1-0.2-0.1-0.3-0.1H295l-9,3.7l2.7-7.2V0h-1.1l-3.3,8.4l-9.7,3.9v1.2h0.5l8.5-3.4
				l-2.7,5.9c-0.1,0.2-0.1,0.4,0,0.6l2.9,4.9H278c-0.2,0-0.4,0.1-0.5,0.3l-2.8,4.9v-0.1l-2.6-4.8c-0.1-0.2-0.3-0.3-0.5-0.3h-6.1
				l3.2-4.9c0.1-0.2,0.1-0.4,0-0.6l-3.1-6l8.5,3.5l0.6,0.2v-1.4l-9.9-4.1L261.6,0h-1.1v0.6l2.8,7.1L255,4.2h-0.2
				c-0.1,0-0.2,0-0.3,0.1c-0.2,0.1-0.3,0.3-0.3,0.4l-1.5,9.7L247.2,8c-0.1-0.1-0.3-0.2-0.4-0.2l-8.4-0.7l8.2-6.2
				c0.2-0.1,0.3-0.3,0.2-0.5V0h-2l0.4,0.4l-8.6,6.5l-6.8-1l-3.3-5.5l0.2-0.4h-1.9l0.3,0.4l-3.2,5l-5.2-0.1l-3.1-5l0.1-0.4h-1.4v0.4
				c0,0.1,0,0.2,0.1,0.3l2.9,4.6h-6.1c-0.2,0-0.4,0.1-0.5,0.3l-2.4,4.8l-2.3-4.8c-0.1-0.2-0.3-0.3-0.6-0.3h-6.1l2.8-4.6
				c0.1-0.1,0.1-0.2,0.1-0.3V0h-1.5l0.2,0.4l-3.1,5h-5.3L187,0h-0.9l-3.5,5.8l-7.1,0.9L166.6,0h-1.1v0.4c0,0.2,0.1,0.4,0.2,0.5
				l7.9,6l-8.5,0.7c-0.2,0-0.3,0.1-0.4,0.2l-5.2,6.8l-1.3-9.9c0-0.2-0.1-0.4-0.3-0.4c-0.1-0.1-0.2-0.1-0.3-0.1h-0.1l-9,3.7l2.8-7.2
				V0h-1.1L147,8.5l-9.7,3.9v1.2h0.4l8.5-3.4l-2.7,5.9c-0.1,0.2-0.1,0.4,0,0.6l2.9,4.9h-5.8c-0.2,0-0.4,0.1-0.5,0.3l-2.8,4.9v-0.1
				l-2.6-4.8c-0.1-0.2-0.3-0.3-0.5-0.3h-6.1l3.2-4.9c0.1-0.2,0.1-0.4,0-0.6l-3.1-6l8.5,3.5l0.6,0.2v-1.4l-9.9-4.1L124.2,0h-1.1v0.6
				l2.8,7.1l-8.2-3.4h-0.2c-0.1,0-0.2,0-0.3,0.1c-0.2,0.1-0.3,0.3-0.3,0.4l-1.5,9.7L109.9,8c-0.1-0.1-0.3-0.2-0.4-0.2L101,7.1
				l8.2-6.2c0.2-0.1,0.3-0.3,0.2-0.5V0h-2l0.4,0.4l-8.7,6.5l-6.8-1l-3.3-5.5L89.3,0h-1.9l0.3,0.4l-3.2,5l-5.2-0.1l-3.1-5L76.4,0H75
				v0.4c0,0.1,0,0.2,0,0.3l2.9,4.6h-6.1c-0.2,0-0.4,0.1-0.5,0.3l-2.4,4.8l-2.3-4.8c-0.1-0.2-0.3-0.3-0.5-0.3h-6.1l2.9-4.6
				c0.1-0.1,0.1-0.2,0.1-0.3V0h-1.5l0.2,0.4l-3.1,5h-5.3L49.7,0h-0.9l-3.5,5.8l-7.1,0.9L29.3,0h-1.1v0.4c0,0.2,0.1,0.4,0.2,0.5
				l7.9,6l-8.5,0.7c-0.2,0-0.3,0.1-0.4,0.2l-5.2,6.8L21,4.7c0-0.2-0.1-0.4-0.3-0.4c-0.1-0.1-0.2-0.1-0.3-0.1h-0.1l-9,3.7l2.8-7.2V0
				H13L9.7,8.5L0,12.4v1.2h0.4l8.5-3.4L6.2,16c-0.1,0.2-0.1,0.4,0,0.6l2.9,4.9H3.4c-0.2,0-0.4,0.1-0.5,0.3L0,26.7v1l2.8,6
				C2.9,33.9,3.1,34,3.4,34h6.1l-2.9,5c-0.1,0.2-0.1,0.4,0,0.6l2.9,4.7H3.4c-0.2,0-0.4,0.1-0.5,0.3L0,50.3v1.2l2.8,5
				c0.1,0.2,0.3,0.3,0.5,0.3h5.8l-3.1,5.1C6,62,6,62.2,6.1,62.4l2.5,5.9l-8-3.3L0,64.9v1.2l9.2,3.8l3.3,8.8l-3,8.5L0,91.1v1.3
				l8.9-3.6l-2.7,5.9c-0.1,0.2-0.1,0.4,0,0.6l2.9,4.9H3.3c-0.2,0-0.4,0.1-0.5,0.3L0,105.3v1.3l2.8,5.9c0.1,0.2,0.3,0.4,0.5,0.3h6.1
				l-2.9,5c-0.1,0.2-0.1,0.4,0,0.6l2.9,4.6H3.3c-0.2,0-0.4,0.1-0.5,0.3L0,128.8v1.4l2.8,4.9c0.1,0.2,0.3,0.3,0.5,0.3h5.8L6,140.6
				c-0.1,0.2-0.1,0.4,0,0.5l2,5.7l-8-3.3v1.3l8.6,3.6l3.7,9.5h1.1v-0.6l-3.2-8.3l10.4,4.3h0.2c0.3,0,0.6-0.2,0.6-0.6l1-10.1l4.5,6.7
				c0.1,0.1,0.2,0.2,0.4,0.3l8.8,1.1L28,157c-0.1,0.1-0.2,0.3-0.2,0.5v0.4h2.1l-0.5-0.4l8.4-6.5l7.3,0.6l3,5.8l-0.3,0.4h2l-0.3-0.4
				l3-5.3l5.5-0.1l3.1,5.4l-0.3,0.4h1.5v-0.4c0-0.1,0-0.2-0.1-0.3l-2.9-5h6.1c0.2,0,0.5-0.1,0.6-0.4l2.3-5.1l2.4,5.1
				c0.1,0.2,0.3,0.3,0.6,0.4h6.1l-2.9,5c-0.1,0.1-0.1,0.2-0.1,0.3v0.4h1.6l-0.3-0.4l3.1-5.3h5.3l3,5.3l-0.3,0.4h2l-0.3-0.4l3.5-5.9
				l6.5-0.8l8.7,6.6l-0.8,0.4h2.4l0.1-0.3v-0.1c0-0.2-0.1-0.4-0.2-0.5l-8.3-6.4l8-0.8c0.2,0,0.3-0.1,0.4-0.2l5.9-7.2l1.1,10.4
				c0,0.3,0.3,0.5,0.6,0.6h0.2l9.6-4l-3.3,7.8c0,0.1,0,0.2,0,0.2v0.4h1.2l3.9-9.1l9-3.8l0.4,0.2v-0.3l8.6,3.6l3.7,9.5h1.1v-0.6
				l-3.2-8.3l10.4,4.3h0.2c0.3,0,0.6-0.2,0.6-0.6l1-10.1l4.6,6.7c0.1,0.1,0.2,0.2,0.4,0.3l8.8,1.1l-8.1,6.3
				c-0.1,0.1-0.2,0.3-0.2,0.5v0.4h2.1l-0.5-0.4l8.4-6.4l7.3,0.6l3,5.8l-0.3,0.4h2l-0.3-0.4l3-5.3l5.5-0.1l3.1,5.4l-0.3,0.4h1.6v-0.4
				c0-0.1,0-0.2-0.1-0.3l-2.9-5h6.1c0.2,0,0.5-0.1,0.6-0.4l2.3-5.1l2.4,5.1c0.1,0.2,0.3,0.3,0.6,0.4h6.1l-2.9,5
				c-0.1,0.1-0.1,0.2-0.1,0.3v0.4h1.6l-0.3-0.4l3.1-5.3h5.3l3,5.3l-0.3,0.4h2l-0.3-0.4l3.5-5.9l6.5-0.8l8.7,6.6l-0.8,0.4h2.4
				l0.1-0.3v-0.1c0-0.2-0.1-0.4-0.2-0.5l-8.4-6.4l8-0.8c0.2,0,0.3-0.1,0.4-0.2l5.9-7.2l1.1,10.4c0,0.3,0.3,0.5,0.6,0.6h0.2l9.6-4
				l-3.3,7.8c0,0.1,0,0.2,0,0.2v0.4h1.1l3.9-9.1l9-3.8l0.4,0.2v-0.3l8.6,3.6l3.7,9.5h1v-0.6l-3.2-8.4l10.4,4.3h0.2
				c0.3,0,0.6-0.2,0.6-0.6l1-10.1l4.5,6.7c0.1,0.1,0.2,0.2,0.4,0.3l8.8,1.1l-8.1,6.3c-0.1,0.1-0.2,0.3-0.2,0.5v0.4h2.1l-0.5-0.4
				l8.4-6.4l7.3,0.6l3,5.8l-0.3,0.4h2l-0.3-0.4l3-5.3l5.5-0.1l3.1,5.4l-0.3,0.4h1.6v-0.4c0-0.1,0-0.2-0.1-0.3l-2.9-5h6.1
				c0.2,0,0.5-0.1,0.5-0.4l2.3-5.1l2.4,5.1c0.1,0.2,0.3,0.3,0.5,0.4h6.1l-2.9,5c-0.1,0.1-0.1,0.2-0.1,0.3v0.4h1.6l-0.3-0.4l3.1-5.3
				h5.3l3,5.3l-0.3,0.4h2l-0.3-0.4l3.5-5.9l6.5-0.8l8.7,6.6l-0.8,0.4h2.4l0.1-0.3v-0.1c0-0.2-0.1-0.4-0.2-0.5l-8.4-6.4l8-0.8
				c0.2,0,0.3-0.1,0.4-0.2l5.9-7.2l1.1,10.4c0,0.3,0.3,0.5,0.6,0.6h0.2l9.6-4l-3.3,7.8c0,0.1,0,0.2,0,0.2v0.4h1.1l3.9-9.1l9-3.8
				l0.4,0.2v-1.5h-0.6l-8.2,3.4l2.4-5.8c0.1-0.2,0.1-0.4,0-0.5l-3-5.4h6.2c0.2,0,0.4-0.1,0.5-0.3l2.3-4.3l0.4,0.6v-3.9l-0.4,0.7
				l-2.3-4.8c-0.1-0.2-0.3-0.3-0.5-0.3h-6.1l2.9-4.6c0.1-0.2,0.1-0.4,0-0.6l-2.9-5h6.1c0.2,0,0.5-0.1,0.5-0.4l2.3-5.1l0.4,0.8v-4
				l-0.4,0.7l-2.3-4.2c-0.1-0.2-0.3-0.3-0.5-0.3h-6.1l3.2-4.9c0.1-0.2,0.1-0.4,0-0.6l-3.1-6l8.5,3.5c0.1,0,0.2,0,0.3,0h0.4v-1.5
				l-0.4,0.1l-9.6-4l-3.2-8.3l3.8-8.7l9.4-3.9v-1.2l-0.5,0.1l-8.3,3.4l2.4-5.8c0.1-0.2,0.1-0.4,0-0.5l-3-5.4h6.2
				c0.2,0,0.4-0.1,0.5-0.3l2.6-4.9v-1.4l-2.6-5.5c-0.1-0.2-0.3-0.3-0.5-0.3h-6.1l2.9-4.6c0.1-0.2,0.1-0.4,0-0.6l-2.9-5h6.1
				c0.2,0,0.5-0.1,0.5-0.4L412,28v-1.4l-2.6-4.8c-0.1-0.2-0.3-0.3-0.5-0.3h-6.1l3.2-4.9c0.1-0.2,0.1-0.4,0-0.6l-3.1-6l8.5,3.5
				L412,13.7z M390.8,17.3l3.7,5.1c0.1,0.2,0.3,0.3,0.5,0.3h5.6L398,28c-0.1,0.2-0.1,0.4,0,0.6l2.5,4.2l-5.2,0.1
				c-0.2,0-0.4,0.1-0.5,0.3l-2.8,5l-2.8-5.4c-0.1-0.2-0.3-0.3-0.5-0.3l-6.3-0.5l6.6-5c0.1-0.1,0.1-0.1,0.2-0.2L390.8,17.3z
				 M398,50.4l2.6,5.1h-6c-0.2,0-0.4,0.1-0.5,0.2l-3.7,4.9l-0.9-8.1c0-0.1-0.1-0.2-0.1-0.3l-7-5.4l6.1-0.8c0.2,0,0.3-0.1,0.4-0.3
				l3.1-5.1l3.1,4.8c0.1,0.2,0.3,0.3,0.5,0.3h4.9l-2.6,4.1C397.9,50,397.9,50.2,398,50.4z M398,107.3l2.5,4.2l-5.2,0.1
				c-0.2,0-0.4,0.1-0.5,0.3l-2.8,4.9l-2.8-5.4c-0.1-0.2-0.3-0.3-0.5-0.3l-6.3-0.5l6.6-5c0,0,0.1-0.1,0.1-0.1l1.6-9.5l3.7,5.1
				c0.1,0.2,0.3,0.2,0.5,0.3h5.6l-2.6,5.4C397.9,106.9,397.9,107.1,398,107.3z M282.4,118.1l3.1-5.3h5.3l3,5.3l-3.2,5l-5.2-0.1
				L282.4,118.1z M287.4,128.8l-2.9,5.4h-6.2l-2.7-4.7l2.7-5.3h6.4L287.4,128.8z M274.3,104.8l-2.3-4.3c-0.1-0.2-0.3-0.3-0.5-0.3
				h-6.1l3.2-4.9c0.1-0.2,0.1-0.4,0-0.6l-3.1-6l8.5,3.5c0.1,0,0.2,0,0.3,0h0.3v0.3l8.9-3.6l-2.7,5.9c-0.1,0.2-0.1,0.4,0,0.6l2.9,4.9
				H278c-0.2,0-0.4,0.1-0.5,0.3l-2.8,4.8v-1.2L274.3,104.8z M263.8,123.1h-5.3l-3.2-5l3-5.3l5.5-0.1l3.2,5.4L263.8,123.1z
				 M264.5,124.3h6.5l2.5,5.3l-2.5,4.6h-6.5l-2.8-5.4L264.5,124.3z M136.9,128.2l-2.3-4.8c-0.1-0.2-0.3-0.3-0.6-0.3h-6l2.9-4.6
				c0.1-0.2,0.1-0.4,0-0.6l-2.9-5h6.1c0.2,0,0.5-0.1,0.6-0.4l2.3-5.1l0.4,0.8v-1.4l2.7,5.8c0.1,0.2,0.3,0.4,0.6,0.3h6.1l-2.9,5
				c-0.1,0.2-0.1,0.4,0,0.6l2.9,4.6h-6.1c-0.2,0-0.4,0.1-0.5,0.3l-2.7,5.4v-1.3L136.9,128.2z M14.1,106.8l-2.9-5.4h6.2
				c0.2,0,0.4-0.1,0.5-0.3l3.5-5l1.2,9c0,0.2,0.1,0.3,0.2,0.4l6.4,4.9l-5.5,0.7c-0.2,0-0.3,0.1-0.4,0.3l-3.3,5.6l-2.9-5
				c-0.1-0.2-0.3-0.3-0.5-0.3h-4.8l2.5-4.2C14.1,107.3,13.7,107.1,14.1,106.8z M14,49.8L14,49.8l-2.4-4.2l4.8,0.1h0.1
				c0.2,0,0.4-0.1,0.5-0.3l3-4.8l3.1,5.1c0.1,0.2,0.3,0.3,0.4,0.3l5.9,0.9l-6.9,5.2c-0.1,0-0.1,0.1-0.2,0.2v0.1l-0.8,8.2l-3.7-4.9
				c-0.1-0.1-0.3-0.2-0.5-0.2h-6.1l2.8-5.1C14.1,50.2,14.1,50,14,49.8L14,49.8z M137.3,51.5l2.9,5c0.1,0.2,0.3,0.3,0.5,0.3h5.8
				l-3.1,5.1c-0.1,0.2-0.1,0.4,0,0.5l2.5,5.9l-7.9-3.3l-0.6-0.1v-0.1l-0.5,0.1l-8.3,3.4l2.4-5.7c0.1-0.2,0.1-0.4,0-0.5l-3-5.4h6.2
				c0.2,0,0.4-0.1,0.5-0.3L137.3,51.5L137.3,51.5z M274.6,51.5l2.9,5c0.1,0.2,0.3,0.3,0.5,0.3h5.8l-3.1,5.1c-0.1,0.2-0.1,0.4,0,0.5
				l2.5,5.9l-7.9-3.3l-0.6-0.1v-0.1l-0.5,0.1l-8.3,3.4l2.4-5.8c0.1-0.2,0.1-0.4,0-0.5l-3-5.4h6.2c0.2,0,0.4-0.1,0.5-0.3L274.6,51.5
				L274.6,51.5z M371.3,39c-0.3,0.2-0.3,0.6-0.2,0.8c0,0.1,0.1,0.1,0.2,0.2l8,6l-9,0.9c-0.2,0-0.3,0.1-0.4,0.2l-5,6.4l-1.2-9.5
				c0-0.2-0.1-0.3-0.3-0.4c-0.1-0.1-0.2-0.1-0.3-0.1h-0.2l-9,3.7l2.9-7.4c0.1-0.1,0.1-0.3,0-0.5l-3.4-7.9l10.3,4.3h0.2
				c0.1,0,0.2,0,0.3-0.1c0.2-0.1,0.3-0.3,0.3-0.5l1-10.2l4.8,6.8c0.1,0.1,0.3,0.2,0.4,0.3l8.5,0.9L371.3,39z M381.1,33l7.3,0.6
				l3,5.8l-3.3,5.4l-7.1,0.9l-8.3-6.3L381.1,33z M295.6,94.6l-3.9,5.6h-6.5l-3.2-5.2l3.1-6.8l9.4-3.8l1.3,9.7l0,0
				C295.6,94.2,295.6,94.4,295.6,94.6z M274.3,91l-9.6-4l-3.2-8.3l3.7-8.7l9.4-3.9l9.2,3.8l3.3,8.8l-3,8.5l-9.6,3.9v-0.2L274.3,91z
				 M158.3,94.7l-3.9,5.6h-6.5l-3.1-5.3l3.1-6.8l9.3-3.8l1.3,9.6l0,0C158.3,94.2,158.2,94.4,158.3,94.7L158.3,94.7z M136.9,104.8
				l-2.3-4.2c-0.1-0.2-0.3-0.3-0.5-0.3H128l3.2-4.9c0.1-0.2,0.1-0.4,0-0.6l-3.1-6l8.5,3.5c0.1,0,0.2,0,0.3,0h0.4v-1.4l-0.4,0.1
				l-9.6-4l-3.2-8.3l3.8-8.7l9.4-3.9l9.2,3.8l3.3,8.8l-3,8.5l-9.6,3.9v1.3l8.9-3.6l-2.7,5.9c-0.1,0.2-0.1,0.4,0,0.6l2.9,4.9h-5.8
				c-0.2,0-0.4,0.1-0.5,0.3l-2.7,4.7v-1.1L136.9,104.8z M91.8,65.3l-1.3-10.1l5.6-7.2l10-1l7.7,5.8l1,9.4l-5.9,7.5l-9.8,1L91.8,65.3
				z M107.4,78.7l-8.6,6.5l-6.8-1l-3.3-5.5l3.5-5.9l6.5-0.8L107.4,78.7z M90.6,65.7c0,0.2,0.1,0.3,0.2,0.4l6.4,4.9l-5.5,0.7
				c-0.2,0-0.4,0.1-0.4,0.3L88,77.5l-2.9-5c-0.1-0.2-0.3-0.3-0.5-0.3h-4.9l2.5-4.2c0.1-0.2,0.1-0.4,0-0.6L79.2,62h6.2
				c0.2,0,0.4-0.1,0.5-0.3l3.5-5L90.6,65.7z M61.1,78.7l-3.1,5h-5.3l-3.2-5l3-5.3l5.5-0.1L61.1,78.7z M56,67.6l2.7-5.6h6.5l2.5,4.6
				l-2.5,5.6h-6.4L56,67.6z M58.7,84.9h6.5l2.5,5.3l-2.5,4.7h-6.5L56,89.4L58.7,84.9z M66.1,84c-0.1-0.2-0.3-0.3-0.6-0.3h-6.1
				l2.9-4.7c0.1-0.2,0.1-0.4,0-0.6l-2.9-5h6.1c0.2,0,0.5-0.1,0.6-0.4l2.3-5.1l2.4,5.1c0.1,0.2,0.3,0.3,0.6,0.3h6.1l-2.9,5
				c-0.1,0.2-0.1,0.4,0,0.6l2.9,4.6h-6.1c-0.2,0-0.4,0.1-0.5,0.3l-2.4,4.8L66.1,84z M69.1,66.6l2.6-4.6h6.2l3.1,5.7l-2.7,4.5h-6.5
				L69.1,66.6z M71.7,84.9h6.4l2.6,4.5l-2.9,5.4h-6.2L69,90.2L71.7,84.9z M75.8,78.7l3.1-5.3h5.3l3,5.3l-3.2,5l-5.2-0.1L75.8,78.7z
				 M85.1,60.7h-6.5l-3.1-5.2l3.1-6.8l9.3-3.8l1.3,10L85.1,60.7z M74.2,55.3c-0.1,0.2-0.1,0.4,0,0.6l2.9,4.9h-5.7
				c-0.2,0-0.4,0.1-0.5,0.3l-2.5,4.2l-2.3-4.2c-0.1-0.2-0.3-0.3-0.5-0.3h-6.1l3.2-4.9c0.1-0.2,0.1-0.4,0-0.6l-3.1-6l8.5,3.5
				c0.1,0,0.2,0,0.2,0h0.2l8.4-3.4L74.2,55.3z M61.5,55.5L58,60.8h-6l-4.3-5.9l1.5-9.9l8.6,3.6L61.5,55.5z M51.3,61.7
				c0.1,0.2,0.3,0.3,0.5,0.3h5.6l-2.6,5.3c-0.1,0.2-0.1,0.4,0,0.6l2.5,4.2h-5.2c-0.2,0-0.4,0.1-0.5,0.3l-2.8,5L46,72
				c-0.1-0.2-0.3-0.3-0.5-0.3l-6.3-0.5l6.6-5c0.1-0.1,0.1-0.1,0.2-0.2l1.5-9.3L51.3,61.7z M48.8,79.9l3,4.8c0.1,0.2,0.3,0.3,0.5,0.3
				h4.8l-2.4,4.2c-0.1,0.2-0.1,0.4,0,0.6l2.6,5.1h-6c-0.2,0-0.4,0.1-0.5,0.2l-3.7,4.9l-0.9-8.2c0-0.1-0.1-0.2-0.1-0.3l-7-5.4
				l6.1-0.8c0.2,0,0.3-0.1,0.4-0.3L48.8,79.9z M51.7,96H58l3.1,5.7l-2.7,6.6l-9.9,4.1l-1.1-10.8L51.7,96z M62.4,101.9
				c0.1-0.2,0.1-0.4,0-0.5l-3-5.4h6.2c0.2,0,0.4-0.1,0.5-0.3l2.3-4.3l2.4,4.3c0.1,0.2,0.3,0.3,0.5,0.3h5.8l-3.1,5.1
				c-0.1,0.2-0.1,0.4,0,0.6l2.5,5.9l-8-3.3h-0.4l-8.2,3.4L62.4,101.9z M75.3,101.5l3.3-5.5H85l4.2,5.6L88,112.4l-9.9-4.1L75.3,101.5
				z M85.8,95c-0.1-0.2-0.3-0.2-0.5-0.2h-6l2.7-5.1c0.1-0.2,0.1-0.4,0-0.6l-2.4-4.2l4.8,0.1h0.1c0.2,0,0.4-0.1,0.5-0.3l3-4.8L91,85
				c0.1,0.2,0.3,0.3,0.4,0.3l5.9,0.9l-6.9,5.2c-0.1,0.1-0.1,0.1-0.2,0.2v0.1l-0.9,8.1L85.8,95z M91.4,92.2l7.7-5.8l9.6,1l6.3,7.4
				l-1.5,9.9l-7.5,5.7l-9.9-1.3l-5.5-7.7L91.4,92.2z M109.5,86.5c-0.1-0.1-0.2-0.2-0.4-0.2l-8.6-0.9l8.2-6.2
				c0.2-0.1,0.2-0.3,0.2-0.5c0-0.2-0.1-0.4-0.2-0.5l-8.4-6.4l8.8-1c0.2,0,0.3-0.1,0.4-0.2l5.3-6.6l1.1,10.1c0,0.2,0.1,0.4,0.3,0.5
				c0.1,0.1,0.2,0.1,0.3,0.1h0.2l9.6-4l-3.3,7.8c-0.1,0.1-0.1,0.3,0,0.5l2.8,7.4l-8.2-3.4c-0.3-0.1-0.7,0-0.8,0.3c0,0.1,0,0.1,0,0.2
				l-1.5,9.8L109.5,86.5z M116,62.6c0.1-0.1,0.1-0.2,0.1-0.4l4.2-5.5h6.3l3.1,5.7l-2.8,6.6l-9.9,4.1L116,62.6z M117.8,84.3l8.6,3.6
				l3.6,7l-3.4,5.3h-6l-4.3-5.9L117.8,84.3z M127.3,101.4h6.5l2.5,4.6l-2.5,5.6h-6.4l-2.7-4.6L127.3,101.4z M144.6,62.3l3.3-5.5h6.4
				l3.9,5.2c0,0.2,0,0.3,0.1,0.4l0.3,0.3l-1,10.5L147.5,69L144.6,62.3z M141,101.4h6.1l3,5.7l-2.6,4.5H141l-2.7-5.6L141,101.4z
				 M158.4,83.4c0-0.2-0.1-0.3-0.3-0.4c-0.1-0.1-0.2-0.1-0.3-0.1h-0.2l-9.1,3.7l2.7-7.7c0-0.1,0-0.3-0.1-0.4l0,0l-3-8l9.9,4.1h0.2
				c0.1,0,0.2,0,0.3-0.1c0.2-0.1,0.3-0.3,0.3-0.5l1-10l5,6.6c0.1,0.1,0.2,0.2,0.4,0.2l8.3,1.1l-8.1,6.2c-0.3,0.2-0.3,0.6-0.2,0.8
				c0,0.1,0.1,0.1,0.2,0.2l8,6l-8.6,1.1c-0.2,0-0.3,0.1-0.4,0.2l-4.9,6.1L158.4,83.4z M229.1,65.4l-1.3-10.1l5.6-7.2l10-1l7.7,5.8
				l1,9.4l-5.9,7.5l-9.8,1.1L229.1,65.4z M244.7,78.8l-8.6,6.5l-6.8-1l-3.3-5.5l3.5-5.9l6.5-0.8L244.7,78.8z M227.9,65.8
				c0,0.2,0.1,0.3,0.2,0.4l6.4,4.9l-5.6,0.7c-0.2,0-0.4,0.1-0.4,0.3l-3.3,5.6l-2.9-5.1c-0.1-0.2-0.3-0.3-0.5-0.3H217l2.5-4.2
				c0.1-0.2,0.1-0.4,0-0.6l-2.9-5.4h6.2c0.2,0,0.4-0.1,0.5-0.3l3.5-5L227.9,65.8z M198.4,78.8l-3.1,5H190l-3.2-5l3-5.3l5.5-0.1
				L198.4,78.8z M193.3,67.6l2.8-5.6h6.4l2.5,4.6l-2.5,5.6H196L193.3,67.6z M196,84.9h6.5l2.5,5.3l-2.5,4.7H196l-2.8-5.4L196,84.9z
				 M203.4,84c-0.1-0.2-0.3-0.3-0.6-0.3h-6.1l2.9-4.7c0.1-0.2,0.1-0.4,0-0.6l-2.9-5h6.1c0.2,0,0.5-0.1,0.6-0.4l2.3-5.1l2.4,5.1
				c0.1,0.2,0.3,0.3,0.6,0.3h6.1l-2.9,5c-0.1,0.2-0.1,0.4,0,0.6l2.9,4.6h-6.1c-0.2,0-0.4,0.1-0.5,0.3l-2.4,4.8L203.4,84z
				 M206.4,66.6L209,62h6.1l3.1,5.7l-2.7,4.5H209L206.4,66.6z M209,84.9h6.4l2.6,4.5l-2.9,5.4H209l-2.7-4.7L209,84.9z M213.1,78.7
				l3.1-5.3h5.3l3,5.3l-3.2,5l-5.2-0.1L213.1,78.7z M222.3,60.7h-6.5l-3.1-5.3l3.1-6.8l9.3-3.8l1.3,10L222.3,60.7z M211.4,55.3
				c-0.1,0.2-0.1,0.4,0,0.6l2.9,4.9h-5.7c-0.2,0-0.4,0.1-0.5,0.3l-2.5,4.2l-2.3-4.2c-0.1-0.2-0.3-0.3-0.5-0.3h-6.1l3.2-4.8
				c0.1-0.2,0.1-0.4,0-0.6l-3.1-6l8.5,3.5c0.1,0,0.2,0,0.2,0h0.1l8.4-3.4L211.4,55.3z M198.7,55.5l-3.5,5.3h-6l-4.3-5.9l1.5-9.9
				l8.6,3.6L198.7,55.5z M188.6,61.8c0.1,0.2,0.3,0.3,0.5,0.3h5.6l-2.6,5.3c-0.1,0.2-0.1,0.4,0,0.6l2.5,4.2h-5.2
				c-0.2,0-0.4,0.1-0.5,0.3l-2.8,4.9l-2.8-5.4c-0.1-0.2-0.3-0.3-0.5-0.3l-6.3-0.5l6.6-5c0.1-0.1,0.1-0.1,0.2-0.2l1.5-9.3L188.6,61.8
				z M185.4,78.8l-3.3,5.4L175,85l-8.3-6.3l8.4-6.4l7.3,0.6L185.4,78.8z M182.3,65.3l-7.5,5.7l-9.2-1.3l-5.6-7.3l0.8-9.5l7.5-5.7
				l10.1,0.8l5.4,7.1L182.3,65.3z M165.1,87.5l9.6-1.2l7.8,5.9l1,9.2l-5.3,7.8l-9.9,1l-7.2-5.5l-1.4-10.4L165.1,87.5z M176.5,86.1
				l6.1-0.8c0.2,0,0.3-0.1,0.4-0.3l3.1-5.1l3.1,4.8c0.1,0.2,0.3,0.3,0.5,0.3h4.9l-2.5,4.2c-0.1,0.2-0.1,0.4,0,0.6l2.6,5.1h-6
				c-0.2,0-0.4,0.1-0.5,0.2l-3.7,4.9l-0.9-8.2c0-0.1-0.1-0.2-0.1-0.3L176.5,86.1z M189,96h6.4l3.1,5.7l-2.7,6.6l-9.9,4.1l-1.1-10.8
				L189,96z M199.7,101.9c0.1-0.2,0.1-0.4,0-0.5l-3-5.4h6.2c0.2,0,0.4-0.1,0.5-0.3l2.3-4.3l2.4,4.3c0.1,0.2,0.3,0.3,0.5,0.3h5.8
				l-3.1,5.1c-0.1,0.2-0.1,0.4,0,0.6l2.5,5.9l-8-3.3h-0.4l-8.2,3.4L199.7,101.9z M212.6,101.5l3.3-5.5h6.4l4.2,5.6l-1.1,10.8
				l-9.9-4.1L212.6,101.5z M223.2,95c-0.1-0.2-0.3-0.2-0.5-0.2h-6.1l2.8-5.1c0.1-0.2,0.1-0.4,0-0.6l-2.4-4.2l4.8,0.1h0.1
				c0.2,0,0.4-0.1,0.5-0.3l3-4.8l3.1,5.2c0.1,0.2,0.3,0.3,0.4,0.3l5.9,0.9l-6.9,5.2c-0.1,0.1-0.1,0.1-0.2,0.2v0.1l-0.9,8.1L223.2,95
				z M228.8,92.2l7.7-5.8l9.6,1l6.3,7.4l-1.5,9.9l-7.5,5.7l-9.9-1.3l-5.5-7.6L228.8,92.2z M246.8,86.5c-0.1-0.1-0.2-0.2-0.4-0.2
				l-8.6-0.9l8.2-6.2c0.2-0.1,0.2-0.3,0.2-0.5c0-0.2-0.1-0.4-0.2-0.5l-8.4-6.4l8.8-1c0.2,0,0.3-0.1,0.4-0.2l5.3-6.6l1.1,10.1
				c0,0.2,0.1,0.4,0.3,0.5c0.1,0.1,0.2,0.1,0.3,0.1h0.2l9.6-4l-3.3,7.8c-0.1,0.1-0.1,0.3,0,0.4l0,0l2.8,7.4l-8.2-3.4
				c-0.3-0.1-0.7,0-0.8,0.3c0,0.1,0,0.1,0,0.2l-1.5,9.8L246.8,86.5z M253.3,62.6c0.1-0.1,0.1-0.2,0.1-0.4l4.2-5.5h6.4l3.1,5.7
				l-2.8,6.6l-10,4.1L253.3,62.6z M255.1,84.3l8.6,3.6l3.6,7l-3.4,5.3h-6l-4.3-5.9L255.1,84.3z M282,62.2l3.3-5.5h6.4l3.9,5.2
				c0,0.2,0,0.3,0.1,0.4l0.3,0.3l-1,10.5L284.8,69L282,62.2z M295.7,83.3c0-0.2-0.1-0.3-0.3-0.4c-0.1-0.1-0.2-0.1-0.3-0.1h-0.2
				l-9.1,3.7l2.7-7.7c0-0.1,0-0.3-0.1-0.4l0,0l-3-8l9.8,4.1h0.2c0.1,0,0.2,0,0.3-0.1c0.2-0.1,0.3-0.3,0.3-0.5l1-10l5,6.6
				c0.1,0.1,0.2,0.2,0.4,0.2l8.3,1.2l-8.1,6.2c-0.3,0.2-0.3,0.6-0.2,0.8c0,0.1,0.1,0.1,0.2,0.2l8,6l-8.6,1.1c-0.2,0-0.3,0.1-0.4,0.2
				l-4.9,6.1L295.7,83.3z M335.8,78.7l-3.1,5h-5.3l-3.2-5l3-5.3l5.5-0.1L335.8,78.7z M330.7,67.6l2.7-5.6h6.5l2.5,4.6l-2.5,5.6h-6.4
				L330.7,67.6z M333.3,84.9h6.5l2.5,5.3l-2.5,4.7h-6.5l-2.8-5.4L333.3,84.9z M340.7,84c-0.1-0.2-0.3-0.3-0.5-0.3h-6.1L337,79
				c0.1-0.2,0.1-0.4,0-0.6l-2.9-5h6.1c0.2,0,0.5-0.1,0.5-0.4l2.3-5.1l2.4,5.1c0.1,0.2,0.3,0.3,0.5,0.3h6.1l-2.9,5
				c-0.1,0.2-0.1,0.4,0,0.6l2.9,4.6H346c-0.2,0-0.4,0.1-0.5,0.3l-2.5,4.9L340.7,84z M346.4,84.9h6.4l2.6,4.5l-2.9,5.4h-6.2l-2.7-4.7
				L346.4,84.9z M350.5,78.7l3.1-5.3h5.3l3,5.3l-3.2,5l-5.2-0.1L350.5,78.7z M352.9,72.2h-6.5l-2.7-5.6l2.6-4.6h6.1l3.1,5.7
				L352.9,72.2z M350.1,55.5l3.1-6.8l9.3-3.8l1.3,10l-4.1,5.9h-6.5L350.1,55.5z M348.9,55.3c-0.1,0.2-0.1,0.4,0,0.6l2.9,4.9H346
				c-0.2,0-0.4,0.1-0.5,0.3l-2.5,4.2l-2.3-4.2c-0.1-0.2-0.3-0.3-0.5-0.3h-6.1l3.2-4.9c0.1-0.2,0.1-0.4,0-0.6l-3.1-6l8.5,3.5
				c0.1,0,0.2,0,0.2,0h0.1l8.4-3.4L348.9,55.3z M336.2,55.5l-3.5,5.3h-6l-4.3-5.9l1.6-9.9l8.6,3.6L336.2,55.5z M325.9,61.8
				c0.1,0.2,0.3,0.3,0.5,0.3h5.6l-2.6,5.3c-0.1,0.2-0.1,0.4,0,0.6l2.5,4.2h-5.2c-0.2,0-0.4,0.1-0.5,0.3l-2.8,4.9l-2.8-5.4
				c-0.1-0.2-0.3-0.3-0.5-0.3l-6.3-0.5l6.6-5c0.1-0.1,0.1-0.1,0.2-0.2l1.5-9.3L325.9,61.8z M322.7,78.8l-3.3,5.4l-7.1,0.9l-8.4-6.4
				l8.5-6.4l7.3,0.6L322.7,78.8z M319.6,65.4l-7.5,5.6l-9.2-1.3l-5.6-7.3l0.8-9.5l7.5-5.7l10.1,0.8l5.4,7.1L319.6,65.4z M302.5,87.6
				l9.5-1.2l7.8,5.9l1,9.2l-5.3,7.8l-9.9,1l-7.1-5.4L297,94.3L302.5,87.6z M313.8,86.1l6.1-0.8c0.2,0,0.3-0.1,0.4-0.3l3.1-5.1
				l3.1,4.8c0.1,0.2,0.3,0.3,0.5,0.3h4.9l-2.5,4.2c-0.1,0.2-0.1,0.4,0,0.6l2.6,5.1h-6c-0.2,0-0.4,0.1-0.5,0.2l-3.7,4.9l-0.8-8.1
				c0-0.1-0.1-0.2-0.1-0.3L313.8,86.1z M326.3,96h6.4l3.1,5.7l-2.7,6.6l-9.9,4.1l-1.2-10.8L326.3,96z M337,102
				c0.1-0.2,0.1-0.4,0-0.5l-3-5.5h6.2c0.2,0,0.4-0.1,0.5-0.3l2.3-4.3l2.5,4.3c0.1,0.2,0.3,0.3,0.6,0.3h5.8l-3.1,5.1
				c-0.1,0.2-0.1,0.4,0,0.6l2.5,5.9l-8-3.3h-0.4l-8.2,3.4L337,102z M349.9,101.6l3.3-5.5h6.4l4.2,5.6l-1.1,10.8l-9.9-4.1
				L349.9,101.6z M360.4,95.1c-0.1-0.2-0.3-0.2-0.5-0.2h-6l2.8-5.1c0.1-0.2,0.1-0.4,0-0.6l-2.4-4.2L359,85h0.1
				c0.2,0,0.4-0.1,0.5-0.3l3-4.8l3.1,5.1c0.1,0.2,0.3,0.3,0.4,0.3l5.9,0.9l-6.9,5.2c-0.1,0.1-0.1,0.1-0.2,0.2v0.1l-0.9,8.1
				L360.4,95.1z M359.7,72.5c-0.1-0.2-0.3-0.3-0.5-0.3h-4.9l2.5-4.2c0.1-0.2,0.1-0.4,0-0.6l-2.9-5.4h6.2c0.2,0,0.4-0.1,0.5-0.3
				l3.5-5l1.2,9c0,0.2,0.1,0.3,0.2,0.4l6.4,4.8l-5.5,0.7c-0.2,0-0.4,0.1-0.5,0.3l-3.3,5.6L359.7,72.5z M363.4,34.2L353.3,30
				l-2.9-6.7l3.3-5.5h6.4l4.3,5.7L363.4,34.2z M355.5,39.6l-3.2,8.3l-9.3,3.7l-9.5-4l-3.1-8.1l3.7-8.3l9.4-3.9l8.3,3.4L355.5,39.6z
				 M334,29c-0.2,0-0.4,0.2-0.4,0.4l-0.4,0.9l-9.5,4l-1.1-10.8l4.3-5.6h6.4l3.1,5.7L334,29z M322.8,35.6c0.1,0.1,0.2,0.1,0.3,0.1
				h0.2l9.2-3.8l-3.3,7.4c-0.1,0.2-0.1,0.3,0,0.5L332,47l-8.3-3.4c-0.3-0.1-0.7,0-0.8,0.3c0,0,0,0.1,0,0.1l-1.5,9.5l-4.9-6.4
				c-0.1-0.1-0.3-0.2-0.4-0.2l-9-0.7l8.3-6.3c0.2-0.1,0.3-0.3,0.3-0.5c0-0.2-0.1-0.4-0.2-0.5l-8.4-6.4l9-1.1c0.2,0,0.3-0.1,0.4-0.2
				l5-6.4l1,10.3C322.5,35.3,322.6,35.5,322.8,35.6L322.8,35.6z M314.1,39.4l-8.6,6.5l-6.8-1l-3.3-5.4l3.5-5.9l6.5-0.8L314.1,39.4z
				 M297.7,45.7c0.1,0.2,0.3,0.3,0.4,0.3l5.9,0.9l-6.9,5.2c-0.1,0-0.1,0.1-0.2,0.2v0.1l-0.8,8.2l-3.7-4.9c-0.1-0.1-0.3-0.2-0.5-0.2
				h-6l2.8-5.1c0.1-0.2,0.1-0.4,0-0.6l0,0l-2.4-4.2l4.8,0.1h0.1c0.2,0,0.4-0.1,0.5-0.3l3-4.8L297.7,45.7z M290.6,44.4l-5.2-0.1l-3-5
				l3.1-5.3h5.3l3,5.3L290.6,44.4z M287.4,50.1l-2.9,5.4h-6.1l-2.7-4.7l2.6-5.3h6.4L287.4,50.1z M271.1,55.5h-6.5l-2.8-5.4l2.7-4.5
				h6.4l2.5,5.3L271.1,55.5z M263.9,44.4h-5.3l-3.2-5l3-5.3l5.5-0.1l3.1,5.4L263.9,44.4z M257.8,45.4c0.1,0.2,0.3,0.3,0.5,0.3h4.9
				l-2.5,4.2c-0.1,0.2-0.1,0.4,0,0.5l0,0l2.6,5.1h-6c-0.2,0-0.4,0.1-0.5,0.2l-3.7,4.9l-0.9-8.2c0-0.1-0.1-0.2-0.1-0.3l-7-5.4l6-0.8
				c0.2,0,0.3-0.1,0.4-0.3l3.1-5.1L257.8,45.4z M250.8,44.8l-7.1,0.9l-8.3-6.3l8.4-6.4l7.3,0.6l3,5.8L250.8,44.8z M234,38.9
				c-0.3,0.2-0.3,0.6-0.2,0.8c0,0.1,0.1,0.1,0.2,0.2l8,6l-9,0.9c-0.2,0-0.3,0.1-0.4,0.2l-5,6.4l-1.3-9.5c0-0.2-0.1-0.3-0.3-0.4
				c-0.1-0.1-0.2-0.1-0.3-0.1h-0.2l-9,3.7l2.9-7.4c0.1-0.1,0.1-0.3,0-0.5l-3.5-7.9l10.3,4.3h0.2c0.1,0,0.2,0,0.3-0.1
				c0.2-0.1,0.3-0.3,0.3-0.5l1-10.2l4.8,6.8c0.1,0.1,0.3,0.2,0.4,0.3l8.5,0.9L234,38.9z M226.1,34.2L215.9,30l-2.9-6.7l3.3-5.5h6.4
				l4.3,5.7L226.1,34.2z M218.2,39.5l-3.2,8.3l-9.3,3.8l-9.5-4l-3.2-8l3.7-8.3l9.4-3.9l8.3,3.4L218.2,39.5z M196.6,29
				c-0.2,0-0.4,0.2-0.4,0.4l-0.4,0.9l-9.5,4l-1.1-10.8l4.3-5.6h6.4l3.1,5.7L196.6,29z M185.2,35.1c0,0.3,0.3,0.5,0.6,0.5h0.2
				l9.2-3.8l-3.3,7.4c-0.1,0.2-0.1,0.3,0,0.5l2.8,7.2l-8.2-3.4c-0.3-0.1-0.7,0-0.8,0.3c0,0,0,0.1,0,0.1l-1.5,9.5l-4.9-6.4
				c-0.1-0.1-0.3-0.2-0.4-0.2l-9-0.7l8.3-6.3c0.2-0.1,0.3-0.3,0.3-0.5c0-0.2-0.1-0.4-0.2-0.5l-8.4-6.4l9-1.1c0.2,0,0.3-0.1,0.4-0.2
				l5-6.4L185.2,35.1z M176.7,39.4l-8.6,6.5l-6.8-1l-3.3-5.5l3.5-5.9l6.5-0.8L176.7,39.4z M160.4,45.7c0.1,0.2,0.3,0.3,0.4,0.3
				l5.9,0.9l-6.9,5.2c-0.1,0-0.1,0.1-0.2,0.2v0.1l-0.8,8.2l-3.7-4.9c-0.1-0.1-0.3-0.2-0.5-0.2h-6.1l2.8-5.1c0.1-0.2,0.1-0.4,0-0.6
				l0,0l-2.4-4.2l4.8,0.1h0.1c0.2,0,0.4-0.1,0.5-0.3l3-4.8L160.4,45.7z M153.3,44.4l-5.2-0.1l-3-5l3.1-5.3h5.3l3,5.3L153.3,44.4z
				 M150.1,50.1l-2.9,5.4H141l-2.7-4.7l2.7-5.3h6.4L150.1,50.1z M133.8,55.5h-6.4l-2.8-5.4l2.7-4.5h6.5l2.5,5.3L133.8,55.5z
				 M126.6,44.4h-5.3l-3.2-5l3-5.3l5.5-0.1l3.1,5.4L126.6,44.4z M120.6,45.4c0.1,0.2,0.3,0.3,0.5,0.3h4.8l-2.5,4.2
				c-0.1,0.2-0.2,0.4-0.1,0.6l0,0l2.6,5.1h-6c-0.2,0-0.4,0.1-0.5,0.2l-3.7,4.9l-0.8-8.2c0-0.1-0.1-0.2-0.1-0.3l-7-5.4L114,46
				c0.2,0,0.3-0.1,0.4-0.3l3.1-5.1L120.6,45.4z M113.4,44.8l-7.1,0.9L98,39.4l8.4-6.4l7.3,0.6l3,5.8L113.4,44.8z M96.6,38.9
				c-0.3,0.2-0.3,0.6-0.2,0.8c0,0.1,0.1,0.1,0.2,0.2l8,6l-9,0.9c-0.2,0-0.3,0.1-0.4,0.2l-5,6.4L89,44c0-0.2-0.1-0.3-0.3-0.4
				c-0.1-0.1-0.2-0.1-0.3-0.1h-0.2l-9,3.7l2.9-7.4c0.1-0.1,0.1-0.3,0-0.5l-3.4-7.9L89,35.6h0.2c0.1,0,0.2,0,0.3-0.1
				c0.2-0.1,0.3-0.3,0.3-0.5l1-10.2l4.8,6.8c0.1,0.1,0.3,0.2,0.4,0.3l8.5,0.9L96.6,38.9z M88.8,34.2L78.6,30l-2.9-6.7l3.3-5.5h6.4
				l4.3,5.7L88.8,34.2z M80.9,39.5l-3.2,8.3l-9.3,3.8l-9.5-4l-3.1-8l3.7-8.3l9.4-3.9l8.3,3.4L80.9,39.5z M59.3,29
				c-0.2,0-0.4,0.2-0.4,0.4l-0.4,0.9l-9.5,4l-1.2-10.8l4.3-5.6h6.3l3.1,5.7L59.3,29z M47.8,35.1c0,0.3,0.3,0.5,0.6,0.5h0.2l9.2-3.8
				l-3.3,7.4c-0.1,0.2-0.1,0.3,0,0.5l2.8,7.3L49,43.5c-0.3-0.1-0.7,0-0.8,0.3c0,0,0,0.1,0,0.1l-1.5,9.5l-4.8-6.4
				c-0.1-0.1-0.3-0.2-0.4-0.2l-9-0.7l8.3-6.3c0.2-0.1,0.3-0.3,0.3-0.5c0-0.2-0.1-0.4-0.2-0.5l-8.4-6.4l9-1.1c0.2,0,0.3-0.1,0.4-0.2
				l5-6.4L47.8,35.1z M39.4,39.4l-8.6,6.5l-6.8-1l-3.3-5.5l3.5-5.9l6.5-0.8L39.4,39.4z M23.5,53l7.5-5.7l10.1,0.8l5.4,7.1l-1.6,10.1
				L37.5,71l-9.2-1.3l-5.6-7.3L23.5,53z M37.8,72.3l7.3,0.6l3,5.8l-3.3,5.4L37.7,85l-8.3-6.3L37.8,72.3z M45.1,92.2l1,9.2l-5.3,7.8
				l-9.9,1l-7.1-5.4l-1.4-10.4l5.5-6.8l9.5-1.2L45.1,92.2z M24.1,112.2l6.5-0.8l8.8,6.7l-8.6,6.5l-6.8-1l-3.3-5.4L24.1,112.2z
				 M40.7,118.6c0.3-0.2,0.3-0.6,0.2-0.8c0-0.1-0.1-0.1-0.2-0.2l-8.4-6.4l8.9-0.9c0.2,0,0.3-0.1,0.4-0.3l4.7-6.9l1.1,10.2
				c0,0.2,0.1,0.4,0.3,0.5c0.2,0.1,0.4,0.1,0.5,0l9.5-3.9l-3.3,7.9c-0.1,0.1-0.1,0.3,0,0.5l2.9,7.4l-8.3-3.5c-0.2-0.1-0.4-0.1-0.5,0
				c-0.2,0.1-0.3,0.3-0.3,0.4l-1.5,9.9l-5.7-6.8c-0.1-0.1-0.2-0.2-0.4-0.2l-8.1-0.8L40.7,118.6z M49.3,123.7l8.6,3.6l3.6,7l-3.5,5.3
				h-6l-4.3-5.5L49.3,123.7z M55.6,118.1l3.7-8.8l9-3.8l8.9,3.7l3.5,8.8l-3.1,8.4l-9.3,3.8l-9.5-4L55.6,118.1z M78.6,127.5l9.3-3.8
				l1.3,10l-4.1,5.9h-6.5l-3.1-5.3L78.6,127.5z M89,122.7c0-0.2-0.1-0.3-0.3-0.4c-0.1-0.1-0.2-0.1-0.3-0.1h-0.2l-9.1,3.7l2.8-7.6
				c0.1-0.1,0.1-0.3,0-0.4l-3.1-7.9l9.6,4h0.2c0.1,0,0.2,0,0.3-0.1c0.2-0.1,0.3-0.3,0.3-0.5l1.1-10.4l5,7c0.1,0.1,0.3,0.2,0.4,0.3
				l8.9,1.2l-8.1,6.2c-0.3,0.2-0.3,0.6-0.2,0.8c0,0.1,0.1,0.1,0.2,0.2l7.9,6l-8.9,1.2c-0.2,0-0.3,0.1-0.4,0.2l-4.9,6.3L89,122.7z
				 M97.9,118.1l8.4-6.4l7.3,0.6l3,5.8l-3.3,5.4l-7.1,0.9L97.9,118.1z M114.5,111.4c-0.1-0.2-0.3-0.3-0.5-0.3l-6.3-0.5l6.6-5
				c0,0,0.1-0.1,0.1-0.1l1.6-9.5l3.7,5.1c0.1,0.2,0.3,0.2,0.5,0.3h5.6l-2.6,5.3c-0.1,0.2-0.1,0.4,0,0.6l2.5,4.2l-5.2,0.1
				c-0.2,0-0.4,0.1-0.5,0.3l-2.8,4.9L114.5,111.4z M121,112.8l5.5-0.1l3.1,5.4l-3.1,5h-5.3l-3.2-5L121,112.8z M127.2,124.3h6.5
				l2.5,5.3l-2.5,4.6h-6.5l-2.8-5.4L127.2,124.3z M140.9,124.3h6.4l2.6,4.5l-2.9,5.4H141l-2.7-4.7L140.9,124.3z M145,118.1l3.1-5.3
				h5.3l3,5.3l-3.2,5L148,123L145,118.1z M154.2,111.9c-0.1-0.2-0.3-0.3-0.5-0.3h-4.9l2.5-4.2c0.1-0.2,0.1-0.4,0-0.6l-2.9-5.4h6.2
				c0.2,0,0.4-0.1,0.5-0.3l3.5-5l1.2,9c0,0.2,0.1,0.3,0.2,0.4l6.4,4.9l-5.5,0.7c-0.2,0-0.3,0.1-0.4,0.3l-3.3,5.6L154.2,111.9z
				 M161.3,112.2l6.5-0.8l8.8,6.7l-8.6,6.5l-6.8-1l-3.3-5.4L161.3,112.2z M178,118.6c0.3-0.2,0.3-0.6,0.2-0.8c0-0.1-0.1-0.1-0.2-0.2
				l-8.4-6.4l8.9-0.9c0.2,0,0.3-0.1,0.4-0.3l4.7-6.9l1.1,10.2c0,0.2,0.1,0.4,0.3,0.5c0.2,0.1,0.4,0.1,0.5,0l9.5-3.8l-3.3,7.9
				c-0.1,0.1-0.1,0.3,0,0.5l2.9,7.4l-8.2-3.4c-0.2-0.1-0.4-0.1-0.5,0c-0.2,0.1-0.3,0.3-0.3,0.4l-1.5,9.9l-5.7-6.8
				c-0.1-0.1-0.2-0.2-0.4-0.2l-8.1-0.8L178,118.6z M186.6,123.7l8.6,3.6l3.6,7l-3.5,5.3h-6L185,134L186.6,123.7z M192.9,118.1
				l3.7-8.8l9.1-3.8l8.9,3.7l3.5,8.8l-3,8.4l-9.3,3.8l-9.5-4L192.9,118.1z M215.9,127.5l9.3-3.8l1.3,10l-4.1,5.9h-6.5l-3.1-5.3
				L215.9,127.5z M226.3,122.7c0-0.2-0.1-0.3-0.3-0.4c-0.1-0.1-0.2-0.1-0.3-0.1h-0.2l-9.1,3.7l2.8-7.6c0.1-0.1,0.1-0.3,0-0.4
				l-3.1-7.9l9.6,4h0.2c0.1,0,0.2,0,0.3-0.1c0.2-0.1,0.3-0.3,0.3-0.5l1.1-10.4l5,7c0.1,0.1,0.3,0.2,0.4,0.3l8.9,1.2l-8.1,6.2
				c-0.3,0.2-0.3,0.6-0.2,0.8c0,0.1,0.1,0.1,0.2,0.2l7.9,6l-8.9,1.2c-0.2,0-0.3,0.1-0.4,0.2l-4.9,6.3L226.3,122.7z M235.3,118.1
				l8.4-6.4l7.3,0.6l3,5.8l-3.3,5.4l-7.1,0.9L235.3,118.1z M251.9,111.4c-0.1-0.2-0.3-0.3-0.5-0.3l-6.3-0.5l6.6-5
				c0,0,0.1-0.1,0.1-0.1l1.6-9.5l3.7,5.1c0.1,0.2,0.3,0.2,0.5,0.3h5.6l-2.6,5.3c-0.1,0.2-0.1,0.4,0,0.6l2.5,4.2l-5.2,0.1
				c-0.2,0-0.4,0.1-0.5,0.3l-2.8,4.9L251.9,111.4z M261.9,107l2.8-5.6h6.5l2.5,4.6l-2.5,5.6h-6.4L261.9,107z M278.3,101.5h6.1l3,5.7
				l-2.6,4.5h-6.5l-2.6-5.6L278.3,101.5z M291.6,111.9c-0.1-0.2-0.3-0.3-0.5-0.3h-4.9l2.5-4.2c0.1-0.2,0.1-0.4,0-0.6l-2.9-5.4h6.2
				c0.2,0,0.4-0.1,0.5-0.3l3.5-5l1.2,9c0,0.2,0.1,0.3,0.2,0.4l6.4,4.9l-5.5,0.7c-0.2,0-0.3,0.1-0.4,0.3l-3.3,5.6L291.6,111.9z
				 M298.7,112.2l6.5-0.8l8.8,6.7l-8.6,6.5l-6.8-1l-3.3-5.4L298.7,112.2z M315.3,118.6c0.3-0.2,0.3-0.6,0.2-0.8
				c0-0.1-0.1-0.1-0.2-0.2l-8.4-6.4l8.9-0.9c0.2,0,0.3-0.1,0.4-0.3l4.7-6.9l1.1,10.2c0,0.2,0.1,0.4,0.3,0.5c0.2,0.1,0.4,0.1,0.5,0
				l9.5-3.9l-3.3,7.9c-0.1,0.1-0.1,0.3,0,0.5l2.9,7.4l-8.2-3.4c-0.2-0.1-0.4-0.1-0.5,0c-0.2,0.1-0.3,0.3-0.3,0.4l-1.5,9.9l-5.7-6.8
				c-0.1-0.1-0.2-0.2-0.4-0.2l-8.1-0.8L315.3,118.6z M323.9,123.7l8.6,3.6l3.6,7l-3.5,5.3h-6l-4.3-5.5L323.9,123.7z M330.2,118.1
				l3.8-8.8l9-3.8l8.9,3.7l3.5,8.8l-3.1,8.4l-9.3,3.8l-9.5-4L330.2,118.1z M353.2,127.4l9.3-3.8l1.3,10l-4.1,5.9h-6.5l-3.1-5.3
				L353.2,127.4z M363.6,122.7c0-0.2-0.1-0.3-0.3-0.4c-0.1-0.1-0.2-0.1-0.3-0.1h-0.2l-9.1,3.7l2.8-7.6c0.1-0.1,0.1-0.3,0-0.4
				l-3.1-7.9l9.6,4h0.2c0.1,0,0.2,0,0.3-0.1c0.2-0.1,0.3-0.3,0.3-0.5l1.2-10.3l5,7c0.1,0.1,0.3,0.2,0.4,0.3l8.9,1.2l-8.1,6.2
				c-0.3,0.2-0.3,0.6-0.2,0.8c0,0.1,0.1,0.1,0.2,0.2l7.9,6l-8.9,1.2c-0.2,0-0.3,0.1-0.4,0.2l-4.9,6.3L363.6,122.7z M372.6,118.1
				l8.4-6.4l7.3,0.6l3,5.8l-3.3,5.4l-7.1,0.9L372.6,118.1z M388.1,104.7l-7.5,5.7l-9.9-1.3l-5.5-7.7l0.8-9.2l7.7-5.8l9.6,1l6.3,7.4
				L388.1,104.7z M373.4,85.2l-6.8-1l-3.3-5.4l3.5-5.9l6.5-0.8l8.7,6.6L373.4,85.2z M366.4,65.3l-1.3-10.1l5.6-7.2l10-1l7.7,5.8
				l1,9.4l-5.9,7.5l-9.8,1.1L366.4,65.3z M374.2,8.2l9.5,0.8l6,6.9L388.2,26l-7.5,5.7l-9.6-1l-5.4-7.6l0.8-9.2L374.2,8.2z
				 M359.5,6.7c0.2,0,0.4-0.1,0.5-0.3l3-4.8l3.1,5.2c0.1,0.2,0.2,0.3,0.4,0.3l5.9,0.9l-6.9,5.2c-0.1,0-0.1,0.1-0.1,0.1
				c0,0,0,0.1-0.1,0.1l-0.8,8.2l-3.7-4.9c-0.1-0.2-0.3-0.2-0.5-0.2h-6l2.8-5.1c0.1-0.2,0.1-0.4,0-0.6l-2.5-4.2L359.5,6.7z
				 M346.9,6.6h6.4l2.6,4.5l-2.9,5.4h-6.2l-2.7-4.7L346.9,6.6z M343.5,13.1l2.5,4.3c0.1,0.2,0.3,0.3,0.5,0.3h5.8l-3.1,5.1
				c-0.1,0.2-0.1,0.4,0,0.6l2.4,5.7l-0.1,0.1l-7.8-3.2c-0.1,0-0.2,0-0.2,0h-0.2l-8.2,3.4l2.4-5.8c0.1-0.2,0.1-0.4,0-0.5l-3-5.4h6.2
				c0.2,0,0.4-0.1,0.5-0.3L343.5,13.1z M333.8,6.6h6.5l2.5,5.3l-2.5,4.6h-6.5l-2.8-5.4L333.8,6.6z M320.4,7c0.2,0,0.3-0.1,0.4-0.3
				l3.1-5.1l3.1,4.8c0.1,0.2,0.3,0.3,0.5,0.3h4.9l-2.5,4.2c-0.1,0.2-0.1,0.4,0,0.6l2.6,5.1h-6c-0.2,0-0.4,0.1-0.5,0.2l-3.7,4.9
				l-0.9-8.1c0-0.1-0.1-0.2-0.1-0.3l-7.1-5.4L320.4,7z M303,8.8l9.5-0.8l7.8,5.9l1,9.2l-5.6,7.3l-10,1.2l-7.2-5.5l-1.3-9.7L303,8.8z
				 M297.3,26.4c0,0.2,0.1,0.3,0.2,0.4l6.4,4.9l-5.5,0.7c-0.2,0-0.4,0.1-0.5,0.3l-3.3,5.5l-2.9-5c-0.1-0.2-0.3-0.3-0.5-0.3h-4.9
				l2.5-4.2c0.1-0.2,0.1-0.4,0-0.6l-2.9-5.4h6.2c0.2,0,0.4-0.1,0.5-0.2l3.6-4.7L297.3,26.4z M282.1,16.2l3.1-6.8l9.3-3.8l1.3,10.4
				l-4.1,5.5h-6.5L282.1,16.2z M278.4,22.7h6.1l3.1,5.7l-2.6,4.5h-6.6l-2.7-5.6L278.4,22.7z M277.4,33.7c0.1,0.2,0.4,0.3,0.6,0.3
				h6.1l-2.9,5c-0.1,0.2-0.1,0.4,0,0.6l2.9,4.6H278c-0.2,0-0.4,0.1-0.5,0.3l-2.8,5.6v-0.1l-2.6-5.4c-0.1-0.2-0.3-0.3-0.5-0.3h-6.1
				l2.9-4.6c0.1-0.2,0.1-0.4,0-0.6l-2.9-5h6.1c0.2,0,0.5-0.1,0.5-0.4l2.6-5.7v-0.3L277.4,33.7z M271,22.7l2.5,4.5l-2.5,5.6h-6.4
				l-2.7-4.6l2.8-5.6L271,22.7z M255.3,5.6l8.6,3.6l3.6,7l-3.5,5.3h-6l-4.3-5.9L255.3,5.6z M253.5,17.3l3.7,5.1
				c0.1,0.2,0.3,0.3,0.5,0.3h5.6l-2.6,5.3c-0.1,0.2-0.1,0.4,0,0.6l2.5,4.2l-5.2,0.1c-0.2,0-0.4,0.1-0.5,0.3l-2.8,5l-2.7-5.5
				c-0.1-0.2-0.3-0.3-0.5-0.3l-6.3-0.5l6.6-5c0.1-0.1,0.1-0.1,0.2-0.2L253.5,17.3z M236.9,8.2l9.6,0.8l6,6.9L250.9,26l-7.5,5.7
				l-9.6-1l-5.4-7.6l0.8-9.2L236.9,8.2z M222.2,6.7c0.2,0,0.4-0.1,0.5-0.3l3-4.8l3.1,5.2c0.1,0.2,0.2,0.3,0.4,0.3l5.9,0.9l-6.9,5.2
				c-0.1,0-0.1,0.1-0.1,0.1c0,0,0,0.1-0.1,0.1l-0.8,8.2l-3.7-4.9c-0.1-0.2-0.3-0.2-0.5-0.2H217l2.8-5.1c0.1-0.2,0.1-0.4,0-0.6
				l-2.4-4.2L222.2,6.7z M209.5,6.6h6.5l2.6,4.5l-2.9,5.4h-6.2l-2.7-4.7L209.5,6.6z M208.6,17.4c0.1,0.2,0.3,0.3,0.5,0.3h5.8
				l-3.1,5.1c-0.1,0.2-0.1,0.4,0,0.6l2.4,5.7l-0.1,0.1l-7.8-3.2c-0.1,0-0.2,0-0.2,0H206l-8.2,3.4l2.4-5.8c0.1-0.2,0.1-0.4,0-0.5
				l-3-5.4h6.2c0.2,0,0.4-0.1,0.5-0.3l2.3-4.3L208.6,17.4z M196.5,6.6h6.5l2.5,5.3l-2.5,4.7h-6.4l-2.8-5.4L196.5,6.6z M183,7
				c0.2,0,0.3-0.1,0.4-0.3l3.1-5.1l3.1,4.8c0.1,0.2,0.3,0.3,0.5,0.3h4.9l-2.5,4.2c-0.1,0.2-0.1,0.4,0,0.6l2.6,5.1h-6
				c-0.2,0-0.4,0.1-0.5,0.2l-3.7,4.8l-0.9-8.1c0-0.1-0.1-0.2-0.1-0.3l-7-5.4L183,7z M165.6,8.8l9.5-0.8l7.8,5.9l1,9.2l-5.6,7.3
				l-10,1.2l-7.2-5.5l-1.3-9.7L165.6,8.8z M160,26.4c0,0.2,0.1,0.3,0.2,0.4l6.4,4.9l-5.5,0.7c-0.2,0-0.4,0.1-0.4,0.3l-3.3,5.5
				l-2.9-5c-0.1-0.2-0.3-0.3-0.5-0.3H149l2.5-4.2c0.1-0.2,0.1-0.4,0-0.6l-2.9-5.4h6.2c0.2,0,0.4-0.1,0.5-0.2l3.6-4.7L160,26.4z
				 M144.8,16.2l3.1-6.8l9.3-3.8l1.4,10.4l-4.1,5.5h-6.6L144.8,16.2z M141.1,22.7h6.1l3.1,5.7l-2.7,4.5h-6.5l-2.7-5.6L141.1,22.7z
				 M137.3,27.7l2.8,6c0.1,0.2,0.3,0.3,0.6,0.3h6.1l-2.9,5c-0.1,0.2-0.1,0.4,0,0.6l2.9,4.6h-6.1c-0.2,0-0.4,0.1-0.5,0.3l-2.8,5.6
				v-0.1l-2.6-5.5c-0.1-0.2-0.3-0.3-0.5-0.3H128l2.9-4.6c0.1-0.2,0.1-0.4,0-0.6L128,34h6.1c0.2,0,0.5-0.1,0.6-0.4l2.6-5.6V27.7z
				 M133.8,22.7l2.5,4.6l-2.5,5.6h-6.4l-2.7-4.6l2.8-5.6H133.8z M117.9,5.6l8.6,3.6l3.6,7l-3.5,5.3h-6l-4.3-5.9L117.9,5.6z
				 M116.2,17.3l3.7,5.1c0.1,0.2,0.3,0.3,0.5,0.3h5.6l-2.6,5.3c-0.1,0.2-0.1,0.4,0,0.6l2.5,4.2l-5.2,0.1c-0.2,0-0.4,0.1-0.5,0.3
				l-2.8,5l-2.8-5.5c-0.1-0.2-0.3-0.3-0.5-0.3l-6.3-0.5l6.6-5c0.1-0.1,0.1-0.1,0.2-0.2L116.2,17.3z M99.6,8.2l9.6,0.8l6,6.9
				L113.6,26l-7.5,5.7l-9.6-1l-5.4-7.6l0.8-9.2L99.6,8.2z M84.9,6.7c0.2,0,0.4-0.1,0.5-0.3l3-4.8l3.1,5.2C91.6,6.9,91.7,7,91.9,7
				l5.9,0.9l-6.9,5.2c-0.1,0-0.1,0.1-0.1,0.1c0,0,0,0.1-0.1,0.1l-0.8,8.2l-3.7-4.9c-0.1-0.2-0.3-0.2-0.5-0.2h-6l2.8-5.1
				c0.1-0.2,0.1-0.4,0-0.6L80,6.6L84.9,6.7z M72.2,6.6h6.4l2.6,4.5l-2.9,5.4h-6.2l-2.7-4.7L72.2,6.6z M71.3,17.4
				c0.1,0.2,0.3,0.3,0.5,0.3h5.8l-3.1,5.1c-0.1,0.2-0.1,0.4,0,0.6l2.5,5.7l-0.1,0.1L69.1,26c-0.1,0-0.2,0-0.2,0h-0.2l-8.2,3.4
				l2.4-5.8c0.1-0.2,0.1-0.4,0-0.5l-3-5.4H66c0.2,0,0.4-0.1,0.5-0.3l2.3-4.3L71.3,17.4z M59.1,6.6h6.5l2.5,5.3l-2.5,4.7h-6.5
				l-2.8-5.4L59.1,6.6z M45.7,7c0.2,0,0.3-0.1,0.4-0.3l3.1-5.1l3.1,4.8c0.1,0.2,0.3,0.3,0.5,0.3h4.8l-2.5,4.2
				c-0.1,0.2-0.1,0.4,0,0.6l2.6,5.1h-6c-0.2,0-0.4,0.1-0.5,0.2l-3.7,4.9l-0.9-8.1c0-0.1-0.1-0.2-0.1-0.3l-7.1-5.4L45.7,7z M28.3,8.8
				L37.8,8l7.8,5.9l1,9.2L41,30.3l-10,1.2L23.8,26l-1.3-9.7L28.3,8.8z M22.6,26.4c0,0.2,0.1,0.3,0.2,0.4l6.4,4.9l-5.5,0.7
				c-0.2,0-0.4,0.1-0.5,0.3L20,38.2l-2.9-5c-0.1-0.2-0.3-0.3-0.5-0.3h-4.9l2.5-4.2c0.1-0.2,0.1-0.4,0-0.6l-2.9-5.4h6.2
				c0.2,0,0.4-0.1,0.5-0.2l3.6-4.7L22.6,26.4z M7.4,16.2l3.2-6.8l9.3-3.8L21.3,16l-4.1,5.5h-6.6L7.4,16.2z M3.8,32.9l-2.7-5.6
				l2.6-4.6h6.2l3.1,5.7l-2.7,4.5H3.8z M7.8,39.4l3.1-5.3h5.3l3,5.3l-3.2,5l-5.2-0.1L7.8,39.4z M3.8,55.5l-2.7-4.7l2.7-5.3h6.4
				l2.6,4.5l-2.9,5.4L3.8,55.5z M7.3,62.2l3.3-5.5H17l3.9,5.2c0,0.2,0,0.3,0.1,0.4l0.3,0.3l-1,10.5L10.2,69L7.3,62.2z M13.8,78.9
				c0-0.1,0-0.3,0-0.4l-3-7.9l9.8,4.1h0.2c0.1,0,0.2,0,0.3-0.1c0.2-0.1,0.3-0.3,0.3-0.5l1-10l5,6.6c0.1,0.1,0.2,0.2,0.4,0.2l8.3,1.1
				L28,78.2c-0.3,0.2-0.3,0.6-0.2,0.8c0,0.1,0.1,0.1,0.2,0.2l8,6l-8.6,1.1c-0.2,0-0.3,0.1-0.4,0.2l-4.9,6.1L21,83.4
				c0-0.2-0.1-0.3-0.3-0.4c-0.1-0.1-0.2-0.1-0.3-0.1h-0.2l-9.1,3.7L13.8,78.9z M7.4,94.9l3.1-6.8l9.3-3.8l1.2,9.7H21
				c-0.1,0.2-0.2,0.4-0.1,0.5l-3.9,5.6h-6.5L7.4,94.9z M3.7,111.6L1,106l2.6-4.6h6.2l3.1,5.7l-2.6,4.5L3.7,111.6z M7.7,118.1
				l3.1-5.3h5.3l3,5.3l-3.2,5l-5.1-0.1L7.7,118.1z M3.7,134.2L1,129.6l2.7-5.3h6.4l2.6,4.5l-2.9,5.4H3.7z M20.3,151.9l-10.7-4.4
				L7.2,141l3.3-5.5H17l4.3,5.7L20.3,151.9z M22.3,131c0,0,0,0.1-0.1,0.1l-0.8,8.2l-3.7-4.9c-0.1-0.2-0.3-0.2-0.5-0.2h-6.1l2.8-5.1
				c0.1-0.2,0.1-0.4,0-0.6l-2.4-4.2l4.8,0.1c0.2,0,0.4-0.1,0.5-0.3l3-4.8l3.1,5.1c0.1,0.2,0.3,0.3,0.4,0.3l5.9,0.9l-6.9,5.2
				C22.4,130.9,22.3,130.9,22.3,131z M37.4,149.8l-9.7-1.3l-5.1-7.6l0.8-9.2l7.7-5.8l9.2,1l6.2,7.4l-1.5,9.8L37.4,149.8z
				 M52.1,150.9c-0.2,0-0.4,0.1-0.5,0.3l-2.8,4.9l-2.8-5.4c-0.1-0.2-0.3-0.3-0.5-0.3l-6.3-0.5l6.6-5l0.1-0.1l1.5-9l3.8,4.8
				c0.1,0.2,0.3,0.2,0.5,0.2h5.6l-2.6,5.3c-0.1,0.2-0.1,0.4,0,0.6l2.5,4.2L52.1,150.9z M65.2,150.9h-6.4l-2.7-4.6l2.8-5.6h6.4
				l2.5,4.6L65.2,150.9z M66.1,139.8c-0.1-0.2-0.3-0.3-0.5-0.3h-6l3.2-4.9c0.1-0.2,0.1-0.4,0-0.6l-3.1-6l8.5,3.5c0.1,0,0.2,0,0.2,0
				h0.2l8.4-3.4l-2.7,5.9c-0.1,0.2-0.1,0.4,0,0.6l2.9,4.9h-5.8c-0.2,0-0.4,0.1-0.5,0.3l-2.5,4.2L66.1,139.8z M78.3,150.9h-6.5
				l-2.7-5.6l2.6-4.6h6.2l3.1,5.7L78.3,150.9z M91.7,150.4c-0.2,0-0.4,0.1-0.4,0.3l-3.3,5.6l-2.9-5c-0.1-0.2-0.3-0.3-0.5-0.3h-4.9
				l2.5-4.2c0.1-0.2,0.1-0.4,0-0.6l-2.9-5.4h6.2c0.2,0,0.4-0.1,0.5-0.3l3.5-5l1.2,9c0,0.2,0.1,0.3,0.2,0.4l6.4,4.9L91.7,150.4z
				 M108.1,148.6l-9.1,0.9l-7.2-5.5l-1.3-10.1l5.5-7l9.9-1.3l7.8,5.9l1,9.2L108.1,148.6z M115.8,139.3l-1-8.2c0-0.1-0.1-0.2-0.1-0.3
				l-7-5.3l6.1-0.8c0.2,0,0.4-0.1,0.4-0.3l3.1-5.1l3.1,4.8c0.1,0.2,0.3,0.3,0.5,0.3h4.8l-2.5,4.2c-0.1,0.2-0.1,0.4,0,0.6l2.6,5.1h-6
				c-0.2,0-0.4,0.1-0.5,0.2L115.8,139.3z M126.9,147.8l-9.9,4.1l-1.1-10.8l4.3-5.6h6.3l3.1,5.7L126.9,147.8z M137.3,143.5v0.2h-0.6
				l-8.2,3.4l2.4-5.8c0.1-0.2,0.1-0.4,0-0.5l-3-5.4h6.1c0.2,0,0.4-0.1,0.5-0.3l2.3-4.3l0.4,0.6v-1.1l2.8,4.9
				c0.1,0.2,0.3,0.3,0.5,0.3h5.8l-3.1,5.1c-0.1,0.2-0.1,0.4,0,0.5l2.1,5.7L137.3,143.5z M157.5,151.9l-10.7-4.4l-2.4-6.5l3.3-5.5
				h6.4l4.3,5.7L157.5,151.9z M159.6,131c0,0,0,0.1-0.1,0.1l-0.8,8.2l-3.7-4.9c-0.1-0.2-0.3-0.2-0.5-0.2h-6.1l2.8-5.1
				c0.1-0.2,0.1-0.4,0-0.6l-2.4-4.2l4.8,0.1c0.2,0,0.4-0.1,0.5-0.3l3-4.8l3.1,5.2c0.1,0.2,0.3,0.3,0.4,0.3l5.9,0.9l-6.9,5.2
				C159.7,130.9,159.7,130.9,159.6,131z M174.8,149.8l-9.8-1.3l-5.1-7.6l0.8-9.2l7.7-5.8l9.2,1l6.2,7.4l-1.5,9.8L174.8,149.8z
				 M189.4,150.9c-0.2,0-0.4,0.1-0.5,0.3l-2.8,4.9l-2.8-5.4c-0.1-0.2-0.3-0.3-0.5-0.3l-6.3-0.5l6.6-5l0.1-0.1l1.5-9l3.8,4.8
				c0.1,0.2,0.3,0.2,0.5,0.2h5.6l-2.6,5.3c-0.1,0.2-0.1,0.4,0,0.6l2.5,4.2L189.4,150.9z M202.4,150.9H196l-2.7-4.6l2.8-5.6h6.4
				l2.5,4.6L202.4,150.9z M205.7,144l-2.3-4.1c-0.1-0.2-0.3-0.3-0.5-0.3h-6.1l3.2-4.9c0.1-0.2,0.1-0.4,0-0.6l-3-6l8.5,3.5
				c0.1,0,0.2,0,0.2,0h0.1l8.4-3.4l-2.7,5.8c-0.1,0.2-0.1,0.4,0,0.6l2.9,4.9h-5.8c-0.2,0-0.4,0.1-0.5,0.3L205.7,144z M215.6,150.9
				H209l-2.7-5.6l2.6-4.6h6.1l3.1,5.7L215.6,150.9z M229,150.4c-0.2,0-0.4,0.1-0.4,0.3l-3.3,5.6l-2.9-5c-0.1-0.2-0.3-0.3-0.5-0.3
				H217l2.5-4.2c0.1-0.2,0.1-0.4,0-0.6l-2.9-5.4h6.2c0.2,0,0.4-0.1,0.5-0.3l3.5-5l1.2,9c0,0.2,0.1,0.3,0.2,0.4l6.4,4.9L229,150.4z
				 M245.4,148.6l-9.1,0.9l-7.2-5.5l-1.3-10.1l5.5-7l9.9-1.3l7.8,5.9l1,9.2L245.4,148.6z M253.1,139.3l-1-8.2c0-0.1-0.1-0.2-0.1-0.3
				l-7-5.3l6.1-0.8c0.2,0,0.4-0.1,0.4-0.3l3.1-5.1l3.1,4.8c0.1,0.2,0.3,0.3,0.5,0.3h4.9l-2.5,4.2c-0.1,0.2-0.1,0.4,0,0.6l2.6,5.1h-6
				c-0.2,0-0.4,0.1-0.5,0.2L253.1,139.3z M264.2,147.8l-9.9,4.1l-1.1-10.8l4.3-5.6h6.4l3.1,5.7L264.2,147.8z M274.6,143.5v0.2H274
				l-8.2,3.4l2.4-5.8c0.1-0.2,0.1-0.4,0-0.5l-3-5.4h6.2c0.2,0,0.4-0.1,0.5-0.3l2.3-4.3l0.4,0.6v-3.9l-0.4,0.7l-2.2-4.8
				c-0.1-0.2-0.3-0.3-0.5-0.3h-6.1l2.9-4.6c0.1-0.2,0.1-0.4,0-0.6l-2.9-5h6.1c0.2,0,0.5-0.1,0.5-0.4l2.3-5.1l0.4,0.8v-1.5l2.8,5.9
				c0.1,0.2,0.3,0.4,0.5,0.3h6.1l-2.9,5c-0.1,0.2-0.1,0.4,0,0.6l2.9,4.6H278c-0.2,0-0.4,0.1-0.5,0.3l-2.7,5.4v1.4l2.8,4.9
				c0.1,0.2,0.3,0.3,0.5,0.3h5.8l-3.1,5.1c-0.1,0.2-0.1,0.4,0,0.5l2.1,5.7L274.6,143.5z M294.8,151.9l-10.7-4.4l-2.4-6.5l3.3-5.5
				h6.4l4.3,5.7L294.8,151.9z M297,131c0,0,0,0.1-0.1,0.1l-0.8,8.2l-3.7-4.9c-0.1-0.2-0.3-0.2-0.5-0.2h-6l2.8-5.1
				c0.1-0.2,0.1-0.4,0-0.6l-2.4-4.2l4.8,0.1c0.2,0,0.4-0.1,0.5-0.3l3-4.8l3.1,5.2c0.1,0.2,0.3,0.3,0.4,0.3l5.9,0.9l-6.9,5.2
				C297.1,130.9,297.1,130.9,297,131z M312.2,149.8l-9.7-1.3l-5.1-7.6l0.8-9.2l7.7-5.8l9.2,1l6.2,7.4l-1.5,9.8L312.2,149.8z
				 M326.8,150.9c-0.2,0-0.4,0.1-0.5,0.3l-2.8,4.9l-2.8-5.4c-0.1-0.2-0.3-0.3-0.5-0.3l-6.3-0.5l6.6-5l0.1-0.1l1.5-9l3.8,4.8
				c0.1,0.2,0.3,0.2,0.5,0.2h5.5l-2.6,5.3c-0.1,0.2-0.1,0.4,0,0.6l2.5,4.2L326.8,150.9z M339.8,150.9h-6.4l-2.7-4.6l2.8-5.6h6.5
				l2.5,4.6L339.8,150.9z M343,144l-2.3-4.1c-0.1-0.2-0.3-0.3-0.5-0.3h-6l3.2-4.9c0.1-0.2,0.1-0.4,0-0.6l-3.1-6l8.5,3.5
				c0.1,0,0.2,0,0.2,0h0.1l8.4-3.4l-2.7,5.8c-0.1,0.2-0.1,0.4,0,0.6l2.9,4.9H346c-0.2,0-0.4,0.1-0.5,0.3L343,144z M352.9,150.9h-6.5
				l-2.7-5.6l2.6-4.6h6.1l3.1,5.7L352.9,150.9z M366.4,150.4c-0.2,0-0.4,0.1-0.5,0.3l-3.3,5.6l-2.9-5c-0.1-0.2-0.3-0.3-0.5-0.3h-4.9
				l2.5-4.2c0.1-0.2,0.1-0.4,0-0.6l-2.9-5.4h6.2c0.2,0,0.4-0.1,0.5-0.3l3.5-5l1.2,9c0,0.2,0.1,0.3,0.2,0.4l6.4,4.9L366.4,150.4z
				 M382.8,148.6l-9.1,0.9l-7.2-5.5l-1.3-10.1l5.5-7l9.9-1.3l7.8,5.9l1,9.2L382.8,148.6z M390.4,139.3l-0.9-8.1
				c0-0.1-0.1-0.2-0.1-0.3l-7-5.3l6.1-0.8c0.2,0,0.4-0.1,0.5-0.3l3.1-5.1l3.1,4.8c0.1,0.2,0.3,0.3,0.5,0.3h4.9l-2.5,4.1
				c-0.1,0.2-0.1,0.4,0,0.6l2.6,5.1h-6c-0.2,0-0.4,0.1-0.5,0.2L390.4,139.3z M404.3,141.2l-2.7,6.6l-9.9,4.1l-1.1-10.8l4.3-5.6h6.4
				L404.3,141.2z M408.3,124.3l2.5,5.3l-2.5,4.6H402l-2.8-5.4l2.7-4.5L408.3,124.3z M404.3,118.1l-3.1,5h-5.3l-3.2-5l3-5.3l5.5-0.1
				L404.3,118.1z M408.4,101.4l2.5,4.6l-2.5,5.6H402l-2.8-4.6l2.8-5.6L408.4,101.4z M404.7,95l-3.5,5.3h-6l-4.3-6l1.5-9.9l8.6,3.6
				L404.7,95z M397.7,78.5c-0.1,0.1-0.1,0.3,0,0.5l2.8,7.4l-8.2-3.4c-0.3-0.1-0.7,0-0.8,0.3c0,0.1,0,0.1,0,0.2l-1.5,9.8l-5.7-6.7
				c-0.1-0.1-0.2-0.2-0.4-0.2l-8.5-0.9l8.2-6.2c0.2-0.1,0.2-0.3,0.2-0.5c0-0.2-0.1-0.4-0.2-0.5l-8.4-6.4l8.8-1
				c0.2,0,0.3-0.1,0.4-0.2l5.2-6.7l1.1,10.1c0,0.2,0.1,0.4,0.3,0.5c0.1,0.1,0.2,0.1,0.3,0.1h0.2l9.6-4L397.7,78.5z M404.5,62.5
				l-2.8,6.6l-9.9,4.1l-1.2-10.6c0.1-0.1,0.1-0.2,0.1-0.4l4.2-5.5h6.4L404.5,62.5z M408.5,45.7l2.5,5.2l-2.5,4.7H402l-2.8-5.4
				l2.7-4.5L408.5,45.7z M404.5,39.5l-3.1,5H396l-3.2-5l3-5.3l5.5-0.1L404.5,39.5z M408.6,22.8l2.4,4.5l-2.5,5.6H402l-2.7-4.6
				l2.7-5.6L408.6,22.8z M404.9,16.3l-3.5,5.3h-6l-4.3-5.9l1.5-9.9l8.6,3.6L404.9,16.3z"/>
		</g>
	</g>
</g>
</svg>
