<?xml version="1.0" encoding="utf-8"?>
<!-- Generator: Adobe Illustrator 20.0.0, SVG Export Plug-In . SVG Version: 6.00 Build 0)  -->
<!DOCTYPE svg PUBLIC "-//W3C//DTD SVG 1.1//EN" "http://www.w3.org/Graphics/SVG/1.1/DTD/svg11.dtd">
<svg version="1.1" id="kiblat" xmlns="http://www.w3.org/2000/svg" xmlns:xlink="http://www.w3.org/1999/xlink" x="0px" y="0px"
	 viewBox="0 0 64 64" style="enable-background:new 0 0 64 64;" xml:space="preserve">
<path d="M32,0C14.3,0,0,14.3,0,32s14.3,32,32,32s32-14.3,32-32S49.7,0,32,0z M32,62C15.4,62,2,48.6,2,32S15.4,2,32,2s30,13.4,30,30
	S48.6,62,32,62z"/>
<path d="M32,4.3C16.7,4.3,4.3,16.7,4.3,32c0,15.3,12.4,27.7,27.7,27.7c15.3,0,27.7-12.4,27.8-27.7c0,0,0,0,0,0
	C59.7,16.7,47.3,4.3,32,4.3z M32,57.7C17.8,57.7,6.3,46.2,6.3,32S17.8,6.3,32,6.3S57.7,17.8,57.7,32c0,0,0,0,0,0
	C57.7,46.2,46.2,57.7,32,57.7z"/>
<path d="M33,50.7v2.5c0,0.6-0.4,1-1,1s-1-0.4-1-1v-2.5c0-0.6,0.4-1,1-1S33,50.2,33,50.7z"/>
<path d="M33,9.5V12c0,0.6-0.4,1-1,1s-1-0.4-1-1V9.5c0-0.6,0.4-1,1-1S33,8.9,33,9.5z"/>
<polygon points="43.3,25 32,30.7 20.7,25 32,19.4 37,21.9 39.1,22.9 41.5,24.1 "/>
<polygon points="43.3,27.4 43.3,39 37.9,41.7 37.9,34.9 34.9,36.4 34.9,43.2 32,44.7 27,42.2 24.9,41.1 22.5,39.9 20.7,39 
	20.7,27.4 32,33.1 "/>
<path d="M54.9,31.4L54.9,31.4c0,0.6-0.4,1-1,1c0,0,0,0,0,0h-2.5c-0.6,0-1-0.4-1-1l0,0c0-0.6,0.4-1,1-1h2.5
	C54.4,30.4,54.9,30.8,54.9,31.4z"/>
<path d="M10.1,30.4h2.5c0.6,0,1,0.4,1,1v0c0,0.6-0.4,1-1,1h-2.5c-0.6,0-1-0.4-1-1v0C9.1,30.8,9.6,30.4,10.1,30.4z"/>
<path d="M24.9,41.1l-4.6,2.7l2.2-3.9L20.7,39l-4.6,8c-0.2,0.3-0.1,0.8,0.3,0.9c0.2,0.1,0.5,0.1,0.7,0l10-5.8L24.9,41.1z M47,16.1
	l-10,5.8l2.1,1.1l4.6-2.7l-2.2,3.9l1.8,0.9l4.6-8c0.2-0.3,0.1-0.7-0.2-0.9C47.5,15.9,47.2,15.9,47,16.1z"/>
</svg>
