<?xml version="1.0" encoding="utf-8"?>
<!-- Generator: Adobe Illustrator 20.0.0, SVG Export Plug-In . SVG Version: 6.00 Build 0)  -->
<!DOCTYPE svg PUBLIC "-//W3C//DTD SVG 1.1//EN" "http://www.w3.org/Graphics/SVG/1.1/DTD/svg11.dtd" [
	<!ENTITY st0 "fill:#4E5A6A;">
	<!ENTITY st1 "fill:#86C541;">
	<!ENTITY st2 "fill:url(#SVGID_1_);">
	<!ENTITY st3 "fill:#FFFFFF;">
	<!ENTITY st4 "fill:#158972;">
	<!ENTITY st5 "fill:url(#SVGID_2_);">
]>
<svg version="1.1" id="Layer_1" xmlns="http://www.w3.org/2000/svg" xmlns:xlink="http://www.w3.org/1999/xlink" x="0px" y="0px"
	 viewBox="0 0 256.8 72.1" style="enable-background:new 0 0 256.8 72.1;" xml:space="preserve">
<title>daikita_logo_1</title>
<g id="Layer_2">
	<g id="Layer_1-2">
		<path style="&st0;" d="M93.2,50c-2.2-3-3.3-6.6-3.2-10.3c-0.2-3.7,1-7.3,3.2-10.3c2.2-2.7,5.2-4,9.3-4c1.5,0,3,0.3,4.5,0.9
			c0.6,0.3,1.1,0.5,1.6,0.9v-4.6c0.1-1.5-0.2-3-0.8-4.4c-0.5-1-1.6-1.4-3.3-1.4H104V15h7c1.1-0.1,2.2,0.2,3.2,0.7
			c0.8,0.5,1.4,1.4,1.6,2.3c0.4,1.5,0.5,3,0.5,4.6v30.8h-4.9l-2-2.6H109c-0.4,0.6-1,1.2-1.6,1.6c-1.5,1.1-3.3,1.7-5.1,1.6
			C98.4,54,95.4,52.7,93.2,50z M107.4,49.5c0.5-0.6,1-1.2,1.3-1.9V29.8c-0.4-0.3-0.9-0.6-1.4-0.9c-1.1-0.5-2.3-0.8-3.6-0.9
			c-3.9,0-5.8,3.9-5.8,11.6c-0.1,2.9,0.3,5.8,1.3,8.5c0.9,2.1,2.3,3.1,4.2,3.1C105,51.3,106.4,50.7,107.4,49.5L107.4,49.5z"/>
		<path style="&st0;" d="M124,51.9c-1.7-1.4-2.7-3.5-2.6-5.7c-0.1-1.7,0.4-3.4,1.4-4.8c1.2-1.5,2.9-2.5,4.8-2.9
			c3.1-0.8,6.3-1.1,9.5-1h0.9c0-3.4-0.5-5.8-1.4-7.2c-0.9-1.4-2.5-2.2-4.1-2.1c-1.3-0.1-2.6,0.3-3.7,1.1c-1.2,1.1-1.9,2.5-2.1,4.1
			h-3.2c0-1.1,0.1-2.3,0.3-3.4c0.2-0.9,0.6-1.8,1.2-2.4c1.2-1.3,4.1-2,8.7-2c3.9,0,6.8,1,8.9,3.1c2,2,3.1,5.1,3.1,9.2v15.7h-4.9
			l-2-2.6h-0.3c-0.4,0.6-1,1.2-1.6,1.6c-1.6,1.1-3.4,1.7-5.4,1.6C128.2,54,125.7,53.3,124,51.9z M135.1,50.6
			c0.6-0.4,1.2-0.8,1.7-1.4c0.5-0.6,0.9-1.2,1.2-1.9V40h-0.9c-2.8,0-4.8,0.5-6,1.5c-1.3,1.2-2,2.9-1.9,4.6c-0.1,1.3,0.3,2.6,1,3.7
			c0.7,0.9,1.7,1.3,2.8,1.3C133.8,51.1,134.5,50.9,135.1,50.6L135.1,50.6z"/>
		<path style="&st1;" d="M154,13.8l-3.5,4.2c0,0,4.3,3.6,4.8,4.5c0,0,3.2-3.6,3.9-4.1C157.6,16.7,155.8,15.2,154,13.8z"/>
		<path style="&st0;" d="M153.2,33.6c0.1-1.5-0.2-3-0.8-4.4c-0.5-1-1.6-1.4-3.3-1.4h-0.6v-1.8h7c1.1-0.1,2.2,0.2,3.2,0.7
			c0.8,0.5,1.4,1.4,1.6,2.3c0.4,1.5,0.5,3,0.5,4.6v19.8h-7.6L153.2,33.6z"/>
		<path style="&st0;" d="M186,52.9c-1.6-0.9-3-2.1-4-3.6l-5.6-7.3v11.4h-7.6V22.6c0.1-1.5-0.2-3-0.8-4.4c-0.5-1-1.6-1.4-3.3-1.4
			h-0.6V15h7c1.1-0.1,2.2,0.2,3.2,0.7c0.8,0.5,1.4,1.4,1.6,2.3c0.4,1.5,0.5,3,0.5,4.6v16.6l7-8.6c1-1.3,2.3-2.5,3.7-3.4
			c1.4-0.7,3-1.1,4.7-1h1.1v1.5c-1.1,0-2.2,0.2-3.1,0.7c-1,0.5-1.9,1.3-2.7,2.2l-5.6,6.9l7.7,10.2c1.9,2.5,3.7,4,5.4,4.4v1.4
			c-0.6,0.2-1.1,0.4-1.7,0.4c-0.8,0.1-1.5,0.2-2.3,0.2C189,54,187.4,53.7,186,52.9z"/>
		<path style="&st1;" d="M200.7,13.8l-3.5,4.2c0,0,4.3,3.6,4.8,4.5c0,0,3.2-3.6,3.9-4.1C204.2,16.7,202.5,15.2,200.7,13.8z"/>
		<path style="&st0;" d="M199.4,33.6c0.1-1.5-0.2-3-0.8-4.4c-0.5-1-1.6-1.4-3.3-1.4h-0.6v-1.8h7c1.1-0.1,2.2,0.2,3.2,0.7
			c0.8,0.5,1.4,1.4,1.6,2.3c0.4,1.5,0.5,3,0.5,4.6v19.8h-7.6L199.4,33.6z"/>
		<path style="&st0;" d="M217.3,51.8c-1.6-1.7-2.4-4-2.3-6.3V28.7h-3.5v-2.6h3.5v-5.2l2.9-3.5h4.7v8.7h6.4v2.6h-6.4v17.2
			c-0.1,1.5,0.1,3,0.8,4.3c0.5,0.8,1.4,1.2,2.3,1.2c1.1,0,2.2-0.3,3.3-0.8c0.4-0.2,0.9-0.5,1.3-0.8l0.8,1.6
			c-0.6,0.5-1.2,0.9-1.8,1.3c-1.8,0.9-3.8,1.3-5.8,1.3C221.2,54.1,218.9,53.4,217.3,51.8z"/>
		<path style="&st0;" d="M235.2,51.9c-1.7-1.4-2.7-3.5-2.6-5.7c-0.1-1.7,0.4-3.4,1.4-4.8c1.2-1.5,2.9-2.5,4.8-2.9
			c3.1-0.8,6.3-1.1,9.6-1h0.9c0-3.4-0.5-5.8-1.4-7.2c-0.9-1.4-2.5-2.2-4.1-2.1c-1.3-0.1-2.6,0.3-3.7,1.1c-1.2,1.1-1.9,2.5-2.1,4.1
			h-3.2c0-1.1,0.1-2.3,0.3-3.4c0.2-0.9,0.6-1.8,1.2-2.4c1.2-1.3,4.1-2,8.7-2c3.9,0,6.8,1,8.9,3.1c2,2,3.1,5.1,3.1,9.2v15.7h-4.9
			l-2-2.6h-0.3c-0.4,0.6-1,1.2-1.6,1.6c-1.6,1.1-3.5,1.7-5.4,1.6C239.4,54,236.9,53.3,235.2,51.9z M246.3,50.6
			c0.6-0.4,1.2-0.8,1.7-1.4c0.5-0.6,0.9-1.2,1.2-1.9V40h-0.9c-2.8,0-4.8,0.5-6,1.5c-1.3,1.2-2,2.9-1.9,4.6c-0.1,1.3,0.3,2.6,1,3.7
			c0.7,0.9,1.7,1.3,2.8,1.3C245,51.1,245.7,50.9,246.3,50.6L246.3,50.6z"/>
		
			<linearGradient id="SVGID_1_" gradientUnits="userSpaceOnUse" x1="36.03" y1="17.22" x2="36.03" y2="72.15" gradientTransform="matrix(1 0 0 -1 0 72)">
			<stop  offset="0" style="stop-color:#26AD7A"/>
			<stop  offset="1" style="stop-color:#86C541"/>
		</linearGradient>
		<circle style="&st2;" cx="36" cy="36" r="36"/>
		<path style="&st3;" d="M56.3,42.6c-4.4,5.2-23,15.3-23.2,15.4c-2.7,1.6-5.8,2.5-8.9,2.8c-0.8,0-1.7-0.1-2.4-0.5
			c-1.5-0.8-2.5-2.3-2.9-3.9c-2.3-9.8,4.4-20.3,4.4-20.3l0.7,1.7l0,0c-1.2,2.6-2.1,5.2-2.7,8c-0.5,3-0.3,5.2,0.8,6.4
			c0.8,0.9,2,1.3,3.1,1.2c2.6-0.2,5.1-0.9,7.3-2.2c4.8-2.4,9.4-4.8,13.2-7.1l0,0c5.8-3.5,9.8-6.3,10-7.1c0-0.5-0.3-1-2-2.3
			c-1.1-0.8-5.7-3.3-9.4-5.3c-2-1.1-4-2.1-5-2.7c-1.6-0.9-3.1-1.9-4.5-3c-0.4-0.3-5.8-4.1-5.8-4.1v-8.2c0.6,0.6,1.3,1.1,2.1,1.5
			c2.1,1.1,9.7,4.6,9.7,4.6L40.5,19H38c2.2,1.6,4.5,2.9,7,4c7.1,3.1,11.1,6,12.6,9C59.1,34.9,58.5,40.1,56.3,42.6z"/>
		<path style="&st3;" d="M57.9,35L57.9,35z"/>
		<path style="&st3;" d="M25.5,23.6L22,27.9c0,0,4.4,3.7,4.9,4.6c0,0,3.3-3.7,4-4.1C29.2,26.7,27.4,25.1,25.5,23.6z"/>
		<path style="&st4;" d="M38.3,72c-0.7,0-1.5,0.1-2.2,0.1c-17,0-31.6-11.8-35.2-28.4C8.3,58.4,22.1,68.8,38.3,72z"/>
		
			<linearGradient id="SVGID_2_" gradientUnits="userSpaceOnUse" x1="25.3556" y1="76.4324" x2="68.0556" y2="42.6524" gradientTransform="matrix(1 0 0 -1 0 72)">
			<stop  offset="0" style="stop-color:#FFFFFF;stop-opacity:0.2"/>
			<stop  offset="1" style="stop-color:#FFFFFF;stop-opacity:0.2"/>
		</linearGradient>
		<path style="&st5;" d="M70.3,35.9c-0.1-19-15.6-34.3-34.6-34.2c-3.9,0-7.7,0.7-11.3,2C42.3,0.2,59.6,11.9,63,29.8
			c0.4,2,0.6,4.1,0.6,6.2c0,1.8,1.6,3.3,3.4,3.3c1.7,0,3.1-1.4,3.3-3.1c0,0,0-0.1,0-0.2S70.3,35.9,70.3,35.9z"/>
	</g>
</g>
</svg>
