<?xml version="1.0" encoding="utf-8"?>
<!-- Generator: Adobe Illustrator 20.0.0, SVG Export Plug-In . SVG Version: 6.00 Build 0)  -->
<!DOCTYPE svg PUBLIC "-//W3C//DTD SVG 1.1//EN" "http://www.w3.org/Graphics/SVG/1.1/DTD/svg11.dtd" [
	<!ENTITY st0 "fill:url(#SVGID_1_);">
	<!ENTITY st1 "fill:#FFFFFF;">
	<!ENTITY st2 "fill:#158972;">
	<!ENTITY st3 "fill:url(#SVGID_2_);">
]>
<svg version="1.1" id="ic_x5F_apps_x5F_1" xmlns="http://www.w3.org/2000/svg" xmlns:xlink="http://www.w3.org/1999/xlink" x="0px"
	 y="0px" viewBox="0 0 32 32" style="enable-background:new 0 0 32 32;" xml:space="preserve">
<g id="Layer_2">
	<g id="Layer_1-2">
		
			<linearGradient id="SVGID_1_" gradientUnits="userSpaceOnUse" x1="16" y1="9.677" x2="16" y2="34.0666" gradientTransform="matrix(1 0 0 -1 0 34)">
			<stop  offset="0" style="stop-color:#26AD7A"/>
			<stop  offset="1" style="stop-color:#86C541"/>
		</linearGradient>
		<circle style="&st0;" cx="16" cy="16" r="16"/>
		<path style="&st1;" d="M25,18.9c-2,2.3-7.6,5.3-10.3,6.8c-1.2,0.7-2.6,1.1-4,1.2c-0.4,0-1.9,0-2.3-2c-1-4.4,1.9-9,1.9-9l0.3,0.7
			l0,0c-0.5,1.1-0.9,2.3-1.2,3.6c-0.6,3.3,1.4,4.2,5,2.4c2.1-1,10-5.4,10.2-6.3c0-0.2-0.1-0.4-0.9-1c-0.5-0.4-5.9-3.3-6.4-3.6
			c-1.1-0.6-4.6-3.2-4.6-3.2V5C13.4,5.9,18,7.7,18,7.7l0,0.7h-1.1c1,0.7,2,1.3,3.1,1.8c3.1,1.4,4.9,2.7,5.6,4
			C26.3,15.5,26,17.8,25,18.9z"/>
		<path style="&st1;" d="M25.7,15.5L25.7,15.5z"/>
		<path style="&st1;" d="M11.3,10.5l-1.6,1.9c0,0,2,1.6,2.2,2c0,0,1.5-1.6,1.8-1.8C13,11.8,12.2,11.1,11.3,10.5z"/>
		<path style="&st2;" d="M17,32c-0.3,0-0.7,0-1,0C8.5,32,2,26.8,0.4,19.4C3.7,25.9,9.8,30.5,17,32z"/>
		
			<linearGradient id="SVGID_2_" gradientUnits="userSpaceOnUse" x1="11.2516" y1="35.9568" x2="30.2242" y2="20.9492" gradientTransform="matrix(1 0 0 -1 0 34)">
			<stop  offset="0" style="stop-color:#FFFFFF;stop-opacity:0.2"/>
			<stop  offset="1" style="stop-color:#FFFFFF;stop-opacity:0.2"/>
		</linearGradient>
		<path style="&st3;" d="M31.2,15.9c0-8.4-6.9-15.2-15.4-15.2c-1.7,0-3.4,0.3-5,0.9C21.3,0.5,28.2,7.9,28.2,16
			c0,0.8,0.7,1.5,1.5,1.5c0.8,0,1.5-0.6,1.5-1.4C31.2,16,31.2,16,31.2,15.9z"/>
	</g>
</g>
</svg>
