<?xml version="1.0" encoding="utf-8"?>
<!-- Generator: Adobe Illustrator 20.0.0, SVG Export Plug-In . SVG Version: 6.00 Build 0)  -->
<!DOCTYPE svg PUBLIC "-//W3C//DTD SVG 1.1//EN" "http://www.w3.org/Graphics/SVG/1.1/DTD/svg11.dtd">
<svg version="1.1" id="masjid" xmlns="http://www.w3.org/2000/svg" xmlns:xlink="http://www.w3.org/1999/xlink" x="0px" y="0px"
	 viewBox="0 0 400 298" style="enable-background:new 0 0 400 298;" xml:space="preserve">
<title>masjid</title>
<g id="Layer_2">
	<g id="Layer_1-2">
		<path d="M394.7,190.3v-2.3h0.4c0.5,0,0.9-0.4,0.9-0.9l0,0l0,0c0-0.5-0.4-0.9-0.9-0.9l0,0h-0.5c0.9-2.1,3.1-8.6,0.2-15.2
			c-1.1-2.6-3.4-5-6-7.2c-2.4-1.9-4.9-3.7-7.6-5.2c0.1-0.4,0.2-0.9,0.2-1.3c0-0.7-0.1-1.4-0.4-2l0,0c-0.4-0.8-1-1.4-1.7-2
			c-0.6-0.5-1.3-0.9-1.9-1.3l-0.1-1.2c0.3-0.3,0.5-0.7,0.5-1.1c0-0.2-0.1-0.5-0.2-0.7c-0.1-0.2-0.3-0.3-0.4-0.4l0-1
			c0.1-0.1,0.2-0.2,0.3-0.3c0.2-0.3,0.2-0.7,0-1.1l0,0c-0.1-0.1-0.2-0.3-0.3-0.3l0-1.1l-0.4-8.4c0-0.1-0.1-0.2-0.2-0.2
			c-0.1,0-0.2,0.1-0.2,0.2c0,0,0,0,0,0l-0.4,8.4l0,1.1c-0.1,0.1-0.2,0.2-0.3,0.3c-0.1,0.2-0.2,0.3-0.2,0.5c0,0.2,0,0.4,0.1,0.5
			c0.1,0.1,0.2,0.2,0.3,0.3l0,1c-0.2,0.1-0.3,0.3-0.4,0.4c-0.1,0.2-0.2,0.5-0.2,0.7c0,0.2,0.1,0.4,0.2,0.6c0.1,0.2,0.2,0.3,0.4,0.4
			l-0.1,1.2c-0.7,0.4-1.3,0.8-1.9,1.3c-0.7,0.5-1.3,1.2-1.7,2c-0.3,0.6-0.4,1.3-0.4,2c0,0.4,0.1,0.9,0.2,1.3
			c-2.7,1.5-5.3,3.3-7.7,5.2c-2.6,2.2-4.9,4.6-6,7.2c-2.9,6.6-0.7,13.1,0.2,15.2H358c-0.5,0-0.9,0.4-0.9,0.9l0,0
			c0,0.5,0.4,0.9,0.9,0.9l0,0h0.2v2.3h-4l-0.1-40h1.2c0.8,0,1.5-0.7,1.5-1.5c0-0.8-0.7-1.5-1.5-1.5c0,0,0,0,0,0h-1.2l-0.1-22.1h0.4
			c0.7,0,1.3-0.7,1.2-1.4c0-0.6-0.6-1.2-1.2-1.2H354l-0.1-17.9h0.5c0.6,0,1.2-0.5,1.2-1.1c0-0.5-0.4-1-0.9-1.1v-3.5v-0.1
			c0-0.1,0-0.2,0-0.3v-1.4h0.5c0.3,0,0.6-0.3,0.6-0.6c0-0.3-0.3-0.6-0.6-0.6h-0.7c0.5-1.5,0.5-3.2-0.1-4.7c-0.5-1-1.2-1.8-2-2.4
			c-0.8-0.7-1.7-1.2-2.6-1.8c0-0.1,0.1-0.3,0.1-0.4c0-0.2,0-0.5-0.1-0.7l0,0c-0.1-0.3-0.3-0.5-0.6-0.7c-0.2-0.2-0.4-0.3-0.7-0.4
			v-0.4c0,0,0.1-0.1,0.1-0.1c0.1-0.1,0.1-0.3,0-0.5c0-0.1-0.1-0.1-0.1-0.2v-0.4c0,0,0.1-0.1,0.1-0.1c0.1-0.1,0.1-0.2,0-0.4
			c0,0-0.1-0.1-0.1-0.1v-0.4l-0.1-2.8c0,0,0-0.1-0.1-0.1c0,0,0,0,0,0c0,0-0.1,0-0.1,0.1c0,0,0,0,0,0l-0.1,2.8v0.4
			c0,0-0.1,0.1-0.1,0.1c0,0.1-0.1,0.1-0.1,0.2c0,0.1,0,0.1,0,0.2c0,0,0.1,0.1,0.1,0.1v0.4c-0.1,0-0.1,0.1-0.1,0.2
			c0,0.1-0.1,0.2-0.1,0.2c0,0.1,0,0.2,0.1,0.2c0,0.1,0.1,0.1,0.1,0.1v0.4c-0.2,0.1-0.4,0.3-0.7,0.4c-0.2,0.2-0.4,0.4-0.6,0.7
			c-0.1,0.2-0.1,0.4-0.1,0.7c0,0.2,0,0.3,0.1,0.4c-0.9,0.5-1.8,1.1-2.6,1.8c-0.9,0.6-1.6,1.5-2,2.4c-0.6,1.5-0.6,3.2-0.1,4.7h-0.5
			c-0.3,0-0.6,0.3-0.6,0.6c0,0.3,0.3,0.6,0.6,0.6l0,0h0.5v5.4c-0.6,0.1-1,0.8-0.8,1.4c0.1,0.5,0.6,0.9,1.1,0.9h0.5l-0.1,17.9h-0.5
			c-0.7,0-1.3,0.7-1.2,1.4c0,0.6,0.6,1.2,1.2,1.2h0.4l-0.1,22.1h-1.2c-0.8,0-1.5,0.7-1.5,1.5c0,0.8,0.7,1.5,1.5,1.5c0,0,0,0,0,0h1.2
			l0,23h-2.2v-9.2h-5.3v-2.3h0.4c0.5,0,0.9-0.4,0.9-0.9c0-0.5-0.4-0.9-0.9-0.9h-0.5c0.9-2.1,3.1-8.6,0.2-15.2c-1.1-2.6-3.4-5-6-7.2
			c-2.4-1.9-5-3.7-7.6-5.2c0.1-0.4,0.2-0.9,0.2-1.3c0-0.7-0.1-1.4-0.4-2l0,0c-0.4-0.8-1-1.4-1.7-2c-0.6-0.5-1.3-0.9-1.9-1.3
			l-0.1-1.2c0.5-0.4,0.7-1.2,0.3-1.8c-0.1-0.2-0.3-0.3-0.4-0.4l0-1c0.1-0.1,0.2-0.2,0.3-0.3l0,0c0.1-0.2,0.1-0.4,0.1-0.5
			c0-0.2-0.1-0.4-0.2-0.5c-0.1-0.1-0.2-0.3-0.3-0.3l0-1.1l-0.4-8.4c0-0.1-0.1-0.2-0.2-0.2c-0.1,0-0.2,0.1-0.2,0.2c0,0,0,0,0,0
			l-0.4,8.4l0,1.1c-0.1,0.1-0.2,0.2-0.3,0.3c-0.2,0.3-0.2,0.7,0,1.1c0.1,0.1,0.2,0.2,0.3,0.3l0,1c-0.2,0.1-0.3,0.3-0.4,0.4
			c-0.2,0.4-0.3,0.9,0,1.3c0.1,0.2,0.2,0.3,0.4,0.4l-0.1,1.2c-0.7,0.4-1.3,0.8-1.9,1.3c-0.7,0.5-1.3,1.2-1.7,2
			c-0.3,0.6-0.4,1.3-0.4,2c0,0.4,0.1,0.9,0.2,1.3c-2.7,1.5-5.2,3.3-7.6,5.2c-2.6,2.2-4.9,4.6-6,7.2c-2.9,6.6-0.7,13.1,0.2,15.2h-0.5
			c-0.5,0-0.9,0.4-0.9,0.9c0,0.5,0.4,0.9,0.9,0.9h0.2v2.3h-5.1v9.2h-3.8v-7c0.4-0.3,0.7-0.9,0.7-1.4c0-0.9-0.6-1.6-1.4-1.8v-5.7
			l0-0.2c0-0.1,0-0.3,0-0.4v-2.3h0.8c0.5,0,0.9-0.4,0.9-0.9c0-0.5-0.4-0.9-0.9-0.9h-1.1c0.9-2.4,0.8-5.1-0.2-7.5
			c-0.8-1.5-1.9-2.9-3.3-3.9c-1.3-1-2.7-2-4.1-2.8c0.1-0.2,0.1-0.5,0.1-0.7c0-0.4,0-0.7-0.2-1.1l0,0c-0.2-0.4-0.5-0.8-0.9-1.1
			c-0.3-0.3-0.7-0.5-1.1-0.7l0-0.7c0.1-0.1,0.1-0.1,0.2-0.2c0.1-0.1,0.1-0.2,0.1-0.4c0-0.1,0-0.3-0.1-0.4c-0.1-0.1-0.1-0.2-0.2-0.2
			v-0.5c0.1-0.1,0.1-0.1,0.1-0.2c0-0.1,0.1-0.2,0.1-0.3c0-0.1,0-0.2-0.1-0.3c0-0.1-0.1-0.1-0.2-0.2V131l-0.2-4.6
			c0-0.1,0-0.1-0.1-0.1c-0.1,0-0.1,0-0.1,0.1l-0.2,4.6v0.6c-0.2,0.1-0.3,0.3-0.3,0.5c0,0.1,0,0.2,0.1,0.3c0,0.1,0.1,0.1,0.1,0.2v0.5
			c-0.1,0.1-0.2,0.1-0.2,0.2c-0.1,0.1-0.1,0.2-0.1,0.4c0,0.1,0,0.2,0.1,0.4c0,0.1,0.1,0.2,0.2,0.2l0,0.7c-0.4,0.2-0.7,0.4-1,0.7
			c-0.4,0.3-0.7,0.6-0.9,1.1c-0.1,0.3-0.2,0.7-0.2,1.1c0,0.2,0.1,0.5,0.1,0.7c-1.5,0.8-2.8,1.8-4.1,2.8c-1.4,1-2.5,2.4-3.3,3.9
			c-1,2.4-1,5.1-0.2,7.5h-0.9c-0.5,0-0.9,0.4-0.9,0.9c0,0.5,0.4,0.9,0.9,0.9h0.7v8.6c-0.8,0.2-1.4,0.9-1.4,1.8
			c0,0.6,0.3,1.1,0.8,1.4v7h-7.3c3.2-8.6,8.3-27.7-0.3-47.3c-3.7-8.5-11.3-16.5-19.8-23.5c-8.3-6.8-17.6-12.7-25.1-17
			c0.4-1.4,0.7-2.8,0.8-4.3c0.1-2.2-0.3-4.5-1.1-6.5v0c-1-2.4-3.2-4.6-5.6-6.4c-2-1.5-4.1-2.9-6.4-4.1l-0.2-4
			c1.9-1.5,2.3-4.3,0.7-6.3c-0.3-0.4-0.7-0.7-1-1l-0.2-3.4c0.4-0.3,0.7-0.7,0.9-1.1l0,0c0.6-1.1,0.6-2.5-0.1-3.5l0,0
			c-0.3-0.5-0.6-0.8-1.1-1.1l-0.2-3.6l-1.2-12.3c2.6,0.2,5.2-0.4,7.5-1.6c2.4-1.4,4.3-3.4,5.6-5.9c-4.3,5.5-12.3,6.6-17.8,2.2
			s-6.6-12.3-2.2-17.8c1-1.3,2.2-2.4,3.6-3.2c1.5-0.9,3.1-1.4,4.7-1.6c-7.8-0.5-14.4,5.4-14.9,13.2c-0.2,2.8,0.5,5.5,1.9,7.9
			c2.3,4,6.2,6.1,10.4,6.7l-1.2,12.4l-0.2,3.6c-1.6,1.1-2.1,3.4-0.9,5c0.2,0.3,0.4,0.5,0.7,0.7l-0.2,3.4c-1.3,0.8-2,2.2-2,3.7
			c0,0.7,0.2,1.5,0.5,2.1c0.3,0.5,0.7,1,1.2,1.4l-0.2,4c-2.2,1.2-4.3,2.6-6.4,4.1c-2.4,1.8-4.6,4-5.6,6.4l0,0
			c-0.9,2.1-1.3,4.3-1.2,6.5c0.1,1.5,0.3,2.9,0.8,4.3c-7.5,4.3-16.8,10.2-25.1,17c-8.5,7-16,15-19.8,23.5
			c-8.6,19.6-3.5,38.7-0.3,47.3h-7.2v-7c0.5-0.3,0.8-0.8,0.8-1.4c0-0.9-0.6-1.6-1.4-1.8v-5.7l0-0.2c0-0.1,0-0.3,0-0.4v-2.3h0.8
			c0.5,0,0.9-0.4,0.9-0.9c0-0.5-0.4-0.9-0.9-0.9h-1.1c0.9-2.4,0.8-5.1-0.2-7.5c-0.8-1.5-1.9-2.8-3.3-3.9c-1.3-1-2.7-2-4.1-2.8
			c0.1-0.2,0.1-0.5,0.1-0.7c0-0.4,0-0.7-0.2-1.1l0,0c-0.2-0.4-0.5-0.8-0.9-1.1c-0.3-0.3-0.7-0.5-1-0.7l0-0.6
			c0.1-0.1,0.1-0.1,0.2-0.2c0.1-0.1,0.1-0.2,0.1-0.4c0-0.1,0-0.3-0.1-0.4c-0.1-0.1-0.1-0.2-0.2-0.2v-0.5c0.1,0,0.1-0.1,0.1-0.2
			c0-0.1,0.1-0.2,0.1-0.3c0-0.1,0-0.2-0.1-0.3c0-0.1-0.1-0.1-0.2-0.2l0-0.6l-0.2-4.6c0-0.1,0-0.1-0.1-0.1c-0.1,0-0.1,0-0.1,0.1
			c0,0,0,0,0,0l-0.2,4.6l0,0.6c-0.1,0.1-0.1,0.1-0.2,0.2c-0.1,0.1-0.1,0.2-0.1,0.3c0,0.1,0,0.2,0.1,0.3c0,0.1,0.1,0.1,0.2,0.2l0,0.5
			c-0.1,0.1-0.2,0.1-0.2,0.2c-0.1,0.1-0.1,0.2-0.1,0.4c0,0.1,0,0.2,0.1,0.4c0,0.1,0.1,0.2,0.2,0.2l0,0.7c-0.4,0.2-0.7,0.4-1,0.7
			c-0.4,0.3-0.7,0.7-0.9,1.1c-0.1,0.3-0.2,0.7-0.2,1.1c0,0.2,0.1,0.5,0.1,0.7c-1.5,0.8-2.8,1.8-4.1,2.8c-1.4,1-2.5,2.4-3.3,3.9
			c-1,2.4-1,5.1-0.2,7.5h-0.9c-0.5,0-0.9,0.4-0.9,0.9c0,0.5,0.4,0.9,0.9,0.9h0.7v8.6c-0.8,0.2-1.4,0.9-1.4,1.8
			c0,0.6,0.3,1.1,0.8,1.4v7h-3.8v-9.2h-5.3v-2.3h0.4c0.5,0,0.9-0.4,0.9-0.9c0-0.5-0.4-0.9-0.9-0.9h-0.5c0.9-2.1,3.1-8.6,0.2-15.2
			c-1.1-2.6-3.4-5-6-7.2c-2.4-1.9-5-3.7-7.6-5.2c0.1-0.4,0.2-0.9,0.2-1.3c0-0.7-0.1-1.4-0.4-2l0,0c-0.4-0.8-1-1.4-1.7-2
			c-0.6-0.5-1.3-0.9-1.9-1.3l-0.1-1.2c0.1-0.1,0.3-0.3,0.4-0.4c0.3-0.6,0.1-1.4-0.5-1.8l0-1c0.1-0.1,0.2-0.2,0.3-0.3l0,0
			c0.1-0.2,0.1-0.4,0.1-0.5c0-0.2-0.1-0.4-0.2-0.5c-0.1-0.1-0.2-0.3-0.3-0.3l0-1.1l-0.4-8.4c0-0.1-0.1-0.2-0.2-0.2
			c-0.1,0-0.2,0.1-0.2,0.2c0,0,0,0,0,0l-0.4,8.4l0,1.1c-0.1,0.1-0.2,0.2-0.3,0.3c-0.2,0.3-0.2,0.7,0,1.1c0.1,0.1,0.2,0.2,0.3,0.3
			l0,1c-0.2,0.1-0.3,0.3-0.4,0.4c-0.2,0.4-0.3,0.9,0,1.3c0.1,0.2,0.2,0.3,0.4,0.4l-0.1,1.2c-0.7,0.4-1.3,0.8-1.9,1.3
			c-0.7,0.5-1.3,1.2-1.7,2c-0.3,0.6-0.4,1.3-0.4,2c0,0.4,0.1,0.9,0.2,1.3c-2.7,1.5-5.2,3.3-7.6,5.2c-2.6,2.2-4.9,4.6-6,7.2
			c-2.9,6.6-0.7,13.1,0.2,15.2h-0.5c-0.5,0-0.9,0.4-0.9,0.9c0,0.5,0.4,0.9,0.9,0.9l0,0H65v2.3h-5.1v9.2h-2.2l0-23h1.2
			c0.8,0,1.5-0.7,1.5-1.5c0-0.8-0.7-1.5-1.5-1.5h-1.2l-0.1-22.1h0.4c0.7,0,1.3-0.7,1.2-1.4c0-0.6-0.6-1.2-1.2-1.2h-0.5l-0.1-17.9
			h0.5c0.6,0,1.2-0.5,1.2-1.1c0-0.5-0.4-1-0.9-1.1v-3.5v-0.1c0-0.1,0-0.2,0-0.3v-1.4h0.5c0.3,0,0.6-0.3,0.6-0.6
			c0-0.3-0.3-0.6-0.6-0.6H58c0.5-1.5,0.5-3.2-0.1-4.7c-0.5-1-1.2-1.8-2-2.4c-0.8-0.7-1.7-1.2-2.6-1.8c0-0.1,0.1-0.3,0.1-0.4
			c0-0.2,0-0.5-0.1-0.7l0,0c-0.1-0.3-0.3-0.5-0.6-0.7c-0.2-0.2-0.4-0.3-0.7-0.4v-0.4c0,0,0.1-0.1,0.1-0.1c0-0.1,0-0.1,0-0.2
			c0-0.1,0-0.2-0.1-0.2c0-0.1-0.1-0.1-0.1-0.2v-0.4c0,0,0.1-0.1,0.1-0.1c0-0.1,0-0.1,0-0.2c0-0.1,0-0.1-0.1-0.2c0,0-0.1-0.1-0.1-0.1
			v-0.4l-0.2-2.8c0,0,0-0.1-0.1-0.1c0,0,0,0,0,0c0,0-0.1,0-0.1,0.1c0,0,0,0,0,0l-0.1,2.8v0.4c0,0-0.1,0.1-0.1,0.1
			c0,0.1-0.1,0.1-0.1,0.2c0,0.1,0,0.1,0,0.2c0,0,0.1,0.1,0.1,0.1v0.4c-0.1,0.1-0.2,0.2-0.2,0.4c0,0.1,0,0.2,0.1,0.2
			c0,0.1,0.1,0.1,0.1,0.1v0.4c-0.2,0.1-0.4,0.3-0.7,0.4c-0.3,0.2-0.5,0.4-0.7,0.7c-0.1,0.2-0.1,0.4-0.1,0.7c0,0.2,0,0.3,0.1,0.4
			c-0.9,0.5-1.8,1.1-2.6,1.8c-0.9,0.6-1.5,1.5-2,2.4c-0.6,1.5-0.6,3.2-0.1,4.7h-0.5c-0.3,0-0.6,0.3-0.6,0.6s0.3,0.6,0.6,0.6l0,0h0.4
			v5.4c-0.6,0.1-1,0.8-0.8,1.4c0.1,0.5,0.6,0.9,1.1,0.9h0.5L46,122.7h-0.4c-0.7,0-1.3,0.7-1.2,1.4c0,0.6,0.6,1.2,1.2,1.2H46
			l-0.1,22.1h-1.2c-0.8,0-1.5,0.7-1.5,1.5c0,0.8,0.7,1.5,1.5,1.5c0,0,0,0,0,0h1.2l-0.1,40h-4.2v-2.3h0.4c0.5,0,0.9-0.4,0.9-0.9l0,0
			l0,0c0-0.5-0.4-0.9-0.9-0.9c0,0,0,0,0,0h-0.5c0.9-2.1,3.1-8.6,0.2-15.2c-1.1-2.6-3.4-5-6-7.2c-2.4-1.9-5-3.7-7.6-5.2
			c0.1-0.4,0.2-0.9,0.2-1.3c0-0.7-0.1-1.4-0.3-2l0,0c-0.4-0.8-1-1.5-1.7-2c-0.6-0.5-1.3-0.9-1.9-1.3l-0.1-1.2
			c0.1-0.1,0.3-0.3,0.4-0.4c0.1-0.2,0.2-0.4,0.2-0.6c0-0.2-0.1-0.5-0.2-0.7c-0.1-0.2-0.3-0.3-0.4-0.4l-0.1-1.1
			c0.1-0.1,0.2-0.2,0.3-0.3c0.1-0.2,0.1-0.4,0.1-0.5c0-0.2-0.1-0.4-0.2-0.5l0,0c-0.1-0.1-0.2-0.3-0.3-0.3l0-1.1l-0.4-8.4
			c0-0.1-0.1-0.2-0.2-0.2c-0.1,0-0.1,0.1-0.2,0.2l-0.4,8.4l0,1.1c-0.1,0.1-0.2,0.2-0.3,0.3c-0.2,0.3-0.2,0.7,0,1.1
			c0.1,0.1,0.2,0.2,0.3,0.3l-0.1,1.1c-0.4,0.3-0.6,0.7-0.6,1.1c0,0.4,0.2,0.8,0.5,1.1l-0.1,1.2c-0.7,0.4-1.3,0.8-1.9,1.3
			c-0.7,0.5-1.3,1.2-1.7,2c-0.3,0.6-0.4,1.3-0.4,2c0,0.4,0.1,0.9,0.2,1.3c-2.7,1.5-5.3,3.2-7.7,5.2c-2.6,2.2-4.9,4.6-6,7.2
			c-2.9,6.6-0.7,13.1,0.2,15.2H4.9c-0.5,0-0.9,0.4-0.9,0.9l0,0c0,0.5,0.4,0.9,0.9,0.9h0.2v2.3H0V298h400V190.3H394.7z M285.4,159.8
			c0-0.2,0.1-0.4,0.2-0.6c0.3-0.3,0.2-0.6,0-0.9c-0.6-1.7,1.4-2,2.5-2.8c0.6,0.6,0.4,1.6,0,2.8c-0.1,0.3-0.2,0.6,0,0.9
			c0.1,0.2,0.2,0.4,0.2,0.6v3.4h-3L285.4,159.8z M275.1,159.8c0-0.2,0.1-0.4,0.2-0.6c0.3-0.3,0.2-0.6,0-0.9c-0.8-2.2,2.7-2,3.1-3.7
			l0,0c0.4,1.6,3.9,1.5,3.1,3.7c-0.1,0.3-0.2,0.6,0,0.9c0.1,0.2,0.2,0.4,0.2,0.6v3.4h-6.8V159.8z M268.8,155.5
			c1.1,0.8,3.1,1.1,2.5,2.8c-0.1,0.3-0.2,0.6,0,0.9c0.1,0.2,0.2,0.4,0.2,0.6v3.4h-2.9v-3.4c0-0.2,0.1-0.4,0.2-0.6
			c0.3-0.3,0.2-0.6,0-0.9C268.4,157.1,268.2,156.1,268.8,155.5L268.8,155.5z M128.4,159.8c0-0.2,0.1-0.4,0.2-0.6
			c0.3-0.3,0.2-0.6,0-0.9c-0.6-1.7,1.4-2,2.5-2.8c0.6,0.6,0.4,1.6,0,2.8c-0.1,0.3-0.2,0.6,0,0.9c0.1,0.2,0.2,0.4,0.2,0.6v3.4h-3
			L128.4,159.8z M118.1,159.8c0-0.2,0.1-0.4,0.2-0.6c0.3-0.3,0.2-0.6,0-0.9c-0.8-2.2,2.7-2,3.1-3.7l0,0c0.4,1.6,3.9,1.5,3.1,3.7
			c-0.1,0.3-0.2,0.6,0,0.9c0.1,0.2,0.2,0.4,0.2,0.6v3.4h-6.8L118.1,159.8z M111.9,155.5c1.1,0.8,3.1,1.1,2.5,2.8
			c-0.1,0.3-0.2,0.6,0,0.9c0.1,0.2,0.2,0.4,0.2,0.6v3.4h-3v-3.4c0-0.2,0.1-0.4,0.2-0.6c0.3-0.3,0.2-0.6,0-0.9
			C111.5,157.1,111.3,156.1,111.9,155.5L111.9,155.5z M47.4,102.5h-1.8v-2.1c0-0.1,0-0.3,0.1-0.4c0.2-0.2,0.1-0.4,0-0.6
			c-0.3-0.7-0.4-1.3,0-1.7c0.7,0.5,1.9,0.7,1.5,1.7c-0.1,0.2-0.1,0.4,0,0.6c0.1,0.1,0.1,0.2,0.1,0.4L47.4,102.5z M53.9,102.5h-4.3
			v-2.1c0-0.1,0-0.3,0.1-0.4c0.2-0.2,0.1-0.4,0-0.6c-0.5-1.3,1.7-1.3,2-2.3l0,0c0.3,1,2.4,1,2,2.3c-0.1,0.2-0.1,0.4,0,0.6
			c0.1,0.1,0.1,0.2,0.1,0.4L53.9,102.5z M56.1,100.4c0-0.1,0-0.3,0.1-0.4c0.2-0.2,0.1-0.4,0-0.6c-0.4-1,0.9-1.2,1.6-1.7
			c0.4,0.4,0.3,1,0,1.7c-0.1,0.2-0.1,0.4,0,0.6c0.1,0.1,0.1,0.2,0.1,0.4v2.1H56L56.1,100.4z M342.1,102.5v-2.1c0-0.1,0-0.3,0.1-0.4
			c0.2-0.2,0.1-0.4,0-0.6c-0.3-0.7-0.4-1.3,0-1.7c0.7,0.5,1.9,0.7,1.5,1.7c-0.1,0.2-0.1,0.4,0,0.6c0.1,0.1,0.1,0.2,0.1,0.4v2.1
			H342.1z M350.4,102.5h-4.2v-2.1c0-0.1,0-0.3,0.1-0.4c0.2-0.2,0.1-0.4,0-0.6c-0.5-1.3,1.7-1.3,2-2.3l0,0c0.3,1,2.4,1,2,2.3
			c-0.1,0.2-0.1,0.4,0,0.6c0.1,0.1,0.1,0.2,0.1,0.4L350.4,102.5z M352.6,102.5v-2.1c0-0.1,0-0.3,0.1-0.4c0.2-0.2,0.1-0.4,0-0.6
			c-0.4-1,0.9-1.2,1.6-1.7c0.4,0.4,0.3,1,0,1.7c-0.1,0.2-0.1,0.4,0,0.6c0.1,0.1,0.1,0.2,0.1,0.4v2.1H352.6z"/>
	</g>
</g>
</svg>
