<?xml version="1.0" encoding="utf-8"?>
<!-- Generator: Adobe Illustrator 20.0.0, SVG Export Plug-In . SVG Version: 6.00 Build 0)  -->
<!DOCTYPE svg PUBLIC "-//W3C//DTD SVG 1.1//EN" "http://www.w3.org/Graphics/SVG/1.1/DTD/svg11.dtd">
<svg version="1.1" id="Layer_1" xmlns="http://www.w3.org/2000/svg" xmlns:xlink="http://www.w3.org/1999/xlink" x="0px" y="0px"
	 viewBox="0 0 32 32" style="enable-background:new 0 0 32 32;" xml:space="preserve">
<g>
	<path d="M15.8,7.6V0.9c0-0.5-0.4-0.9-0.9-0.9H9.2C8.7,0,8.3,0.4,8.3,0.9v6.6c0,2.1,1.7,3.8,3.8,3.8S15.8,9.6,15.8,7.6z M13.9,1.9
		v1.9h-3.8V1.9H13.9z M12.1,9.4c-1,0-1.9-0.8-1.9-1.9V5.6h3.8v1.9C13.9,8.6,13.1,9.4,12.1,9.4z"/>
	<path d="M21.9,19.9l4.4-3.3c1.2-0.9,1.5-2.7,0.6-3.9c-0.9-1.2-2.7-1.5-3.9-0.6l-3.6,2.7l-0.9-1.4c-0.9-1.3-2.3-2.1-3.9-2.1h-3.4
		c-2.6,0-4.7,2.1-4.7,4.7v7.6c0,1.2,0.4,2.3,1.2,3.1c-1.8,0.7-3.1,2.4-3.1,4.4C4.6,31.6,5,32,5.5,32h13.1c2.6,0,4.7-2.1,4.7-4.7
		s-2.1-4.7-4.7-4.7h-1.9c-0.5,0-0.9-0.4-0.9-0.9v-2.2C17.4,21,20,21.3,21.9,19.9L21.9,19.9z M25.4,13.7c0.3,0.4,0.2,1-0.2,1.3
		l-1,0.8L23,14.4l1.1-0.8C24.5,13.3,25.1,13.3,25.4,13.7L25.4,13.7z M10.2,30.1H6.6C7,29,8,28.3,9.2,28.3h0.9V30.1z M16.7,24.5h1.9
		c1.6,0,2.8,1.3,2.8,2.8s-1.3,2.8-2.8,2.8h-6.6v-1.9h6.6c0.5,0,0.9-0.4,0.9-0.9s-0.4-0.9-0.9-0.9h-7.5c-1.6,0-2.8-1.3-2.8-2.8V16
		c0-1.6,1.3-2.8,2.8-2.8h3.4c0.9,0,1.8,0.5,2.3,1.3l1.5,2.2c0.3,0.4,0.9,0.6,1.3,0.2l1.9-1.4l1.2,1.5l-1.9,1.4c-1.3,1-3.1,0.6-4-0.7
		L15.7,16c-0.2-0.3-0.7-0.5-1.1-0.4c-0.4,0.1-0.7,0.5-0.7,0.9v5.1C13.9,23.2,15.2,24.5,16.7,24.5L16.7,24.5z"/>
</g>
</svg>
