<?xml version="1.0" encoding="utf-8"?>
<!-- Generator: Adobe Illustrator 20.0.0, SVG Export Plug-In . SVG Version: 6.00 Build 0)  -->
<!DOCTYPE svg PUBLIC "-//W3C//DTD SVG 1.1//EN" "http://www.w3.org/Graphics/SVG/1.1/DTD/svg11.dtd">
<svg version="1.1" id="Layer_1" xmlns="http://www.w3.org/2000/svg" xmlns:xlink="http://www.w3.org/1999/xlink" x="0px" y="0px"
	 viewBox="0 0 32 32" style="enable-background:new 0 0 32 32;" xml:space="preserve">
<g>
	<path d="M16,18.8c3.2,0,5.9-2.3,6.4-5.4c0.1-0.4-0.1-0.8-0.4-1c-0.3-0.2-0.7-0.2-1,0c-0.6,0.5-1.4,0.7-2.2,0.7
		c-2.1,0-3.7-1.7-3.7-3.7c0-0.8,0.2-1.5,0.7-2.2c0.2-0.3,0.2-0.7,0-1c-0.2-0.3-0.6-0.5-1-0.4c-3.1,0.6-5.4,3.3-5.4,6.4
		C9.4,15.9,12.4,18.8,16,18.8z M13.3,8.4c-0.1,0.3-0.1,0.7-0.1,1c0,3.1,2.5,5.6,5.6,5.6c0.3,0,0.7,0,1-0.1c-0.9,1.2-2.3,2-3.8,2
		c-2.6,0-4.7-2.1-4.7-4.7C11.3,10.7,12.1,9.3,13.3,8.4L13.3,8.4z"/>
	<path d="M17.4,10.4h0.4v0.4c0,0.5,0.4,0.9,0.9,0.9s0.9-0.4,0.9-0.9v-0.4h0.5c0.5,0,0.9-0.4,0.9-0.9c0-0.5-0.4-0.9-0.9-0.9h-0.5V8
		c0-0.5-0.4-0.9-0.9-0.9S17.9,7.5,17.9,8v0.5h-0.4c-0.5,0-0.9,0.4-0.9,0.9C16.5,10,16.9,10.4,17.4,10.4z"/>
	<path d="M25.4,24.5c0.5,0,0.9-0.4,0.9-0.9V0.9c0-0.5-0.4-0.9-0.9-0.9H9.4C7.4,0,5.7,1.7,5.7,3.8v22.6c0,2.1,1.7,3.7,3.7,3.7h1.9
		v0.9c0,0.3,0.2,0.7,0.5,0.8s0.7,0.1,1,0l2.3-1.5l2.3,1.5c0.3,0.2,0.7,0.2,1,0c0.3-0.2,0.5-0.5,0.5-0.8v-0.9h6.6
		c0.5,0,0.9-0.4,0.9-0.9c0-0.5-0.4-0.9-0.9-0.9c-0.4,0-0.9-0.7-0.9-1.9C24.4,25.2,25,24.5,25.4,24.5z M7.6,3.8c0-1,0.8-1.9,1.9-1.9
		h15v20.7c-2.9,0-11.6,0-15,0c-0.7,0-1.3,0.2-1.9,0.5V3.8z M9.4,28.3c-1,0-1.9-0.8-1.9-1.9c0-1,0.8-1.9,1.9-1.9h1.9v3.7H9.4z
		 M16.9,29.3l-1.4-0.9c-0.3-0.2-0.7-0.2-1,0l-1.4,0.9v-4.8h3.7V29.3z M18.8,28.3v-3.8h4.1c-0.2,0.5-0.4,1.2-0.4,1.9s0.1,1.3,0.4,1.9
		H18.8z"/>
</g>
</svg>
