<?xml version="1.0" encoding="utf-8"?>
<!-- Generator: Adobe Illustrator 20.0.0, SVG Export Plug-In . SVG Version: 6.00 Build 0)  -->
<!DOCTYPE svg PUBLIC "-//W3C//DTD SVG 1.1//EN" "http://www.w3.org/Graphics/SVG/1.1/DTD/svg11.dtd">
<svg version="1.1" id="kiblat" xmlns="http://www.w3.org/2000/svg" xmlns:xlink="http://www.w3.org/1999/xlink" x="0px" y="0px"
	 viewBox="0 0 32 32" style="enable-background:new 0 0 32 32;" xml:space="preserve">
<g>
	<path d="M31.1,0H0.9C0.4,0,0,0.4,0,0.9v30.1C0,31.6,0.4,32,0.9,32h30.1c0.5,0,0.9-0.4,0.9-0.9V0.9C32,0.4,31.6,0,31.1,0z M16,15.1
		H6.6c-0.5,0-0.9,0.4-0.9,0.9v4.7H1.9V9.4h28.3v11.3H16.9V16C16.9,15.5,16.5,15.1,16,15.1z M1.9,22.6h3.8v3.8H1.9V22.6z M7.5,16.9
		h7.6v13.2H7.5V16.9z M16.9,22.6h13.2v3.8H16.9V22.6z M30.1,1.9v5.7H1.9V1.9H30.1z M1.9,28.3h3.8v1.9H1.9V28.3z M16.9,30.1v-1.9
		h13.2v1.9H16.9z"/>
	<path d="M8.5,11.3H4.7c-0.5,0-0.9,0.4-0.9,0.9s0.4,0.9,0.9,0.9h3.8c0.5,0,0.9-0.4,0.9-0.9S9,11.3,8.5,11.3z"/>
	<path d="M24.5,12.3c0-0.5-0.4-0.9-0.9-0.9H16c-0.5,0-0.9,0.4-0.9,0.9s0.4,0.9,0.9,0.9h7.6C24.1,13.2,24.5,12.8,24.5,12.3z"/>
	<circle cx="27.3" cy="12.3" r="0.9"/>
	<circle cx="12.3" cy="12.3" r="0.9"/>
</g>
</svg>
