<?xml version="1.0" encoding="utf-8"?>
<!-- Generator: Adobe Illustrator 20.0.0, SVG Export Plug-In . SVG Version: 6.00 Build 0)  -->
<!DOCTYPE svg PUBLIC "-//W3C//DTD SVG 1.1//EN" "http://www.w3.org/Graphics/SVG/1.1/DTD/svg11.dtd" [
	<!ENTITY st0 "fill:#010101;">
]>
<svg version="1.1" id="lapor" xmlns="http://www.w3.org/2000/svg" xmlns:xlink="http://www.w3.org/1999/xlink" x="0px" y="0px"
	 viewBox="0 0 32 32" style="enable-background:new 0 0 32 32;" xml:space="preserve">
<g>
	<circle style="&st0;" cx="16" cy="23.8" r="1.9"/>
	<path style="&st0;" d="M18,9.5l0,0.3l-0.7,9.2c0,0.7-0.6,1.3-1.3,1.3s-1.3-0.6-1.3-1.3l-0.7-9.2l0-0.3c0-1.1,0.9-1.9,1.9-1.9
		S18,8.4,18,9.5z"/>
	<path style="&st0;" d="M14.1,9.5l0,0.3C14.1,9.6,14.1,9.6,14.1,9.5z"/>
	<path style="&st0;" d="M18,9.5c0,0.1,0,0.2,0,0.3L18,9.5z"/>
	<path style="&st0;" d="M31,13.5L18.5,1c-1.4-1.4-3.7-1.4-5.1,0L1,13.5c-1.4,1.4-1.4,3.7,0,5.1L13.5,31c1.4,1.4,3.7,1.4,5.1,0
		L31,18.5C32.3,17.1,32.3,14.9,31,13.5z M29.5,17.4L17.4,29.5c-0.8,0.8-2,0.8-2.7,0L2.5,17.4c-0.8-0.8-0.8-2,0-2.7L14.6,2.5
		c0.8-0.8,2-0.8,2.7,0l12.1,12.1C30.2,15.4,30.2,16.6,29.5,17.4z"/>
</g>
</svg>
