<?xml version="1.0" encoding="utf-8"?>
<!-- Generator: Adobe Illustrator 20.0.0, SVG Export Plug-In . SVG Version: 6.00 Build 0)  -->
<!DOCTYPE svg PUBLIC "-//W3C//DTD SVG 1.1//EN" "http://www.w3.org/Graphics/SVG/1.1/DTD/svg11.dtd">
<svg version="1.1" id="mn_x5F_masjid" xmlns="http://www.w3.org/2000/svg" xmlns:xlink="http://www.w3.org/1999/xlink" x="0px"
	 y="0px" viewBox="0 0 32 32" style="enable-background:new 0 0 32 32;" xml:space="preserve">
<g>
	<path d="M0.9,16.4v14.6c0,0.5,0.4,0.9,0.9,0.9h28.2c0.5,0,0.9-0.4,0.9-0.9V16.4C31.6,15.9,32,15,32,14c0-1.5-1-2.9-2.8-4.1V8.5
		c0-0.5-0.4-0.9-0.9-0.9S27.3,8,27.3,8.5v1.4c-1.7,1.2-2.7,2.5-2.8,3.9c-0.1,1.1,0.4,2.1,0.9,2.7v6.2h-2.9v-2.8
		c0-0.5-0.4-0.9-0.9-0.9h-0.9v-2.4c1.3-1.1,1.9-2.3,1.9-3.7c0-1.4-1-2.9-3.1-4.8c-1-0.9-2-1.6-2.5-1.9V5.5c0.7-0.2,1.2-0.7,1.6-1.4
		c0.2-0.5,0-1-0.4-1.3c-0.5-0.2-1,0-1.3,0.4c-0.2,0.3-0.5,0.5-0.8,0.5c-0.5,0-0.9-0.4-0.9-0.9s0.4-0.9,0.9-0.9
		c0.5,0,0.9-0.4,0.9-0.9S16.5,0,16,0c-1.6,0-2.8,1.3-2.8,2.8c0,1.2,0.8,2.3,1.9,2.7v0.6c-0.5,0.4-1.5,1.1-2.5,1.9
		c-2.1,1.8-3.1,3.4-3.1,4.8c0,1.4,0.6,2.7,1.9,3.7v2.4h-0.9c-0.5,0-0.9,0.4-0.9,0.9v2.8H6.6v-6.2c0.5-0.6,1-1.6,0.9-2.7
		C7.3,12.3,6.4,11,4.7,9.9V8.5c0-0.5-0.4-0.9-0.9-0.9S2.8,8,2.8,8.5v1.4C1,11.1,0,12.5,0,14C0,15,0.4,15.9,0.9,16.4L0.9,16.4z
		 M4.7,30.1H2.8V17h1.9V30.1z M17.9,30.1h-3.7v-0.9c0-0.5,0.4-0.9,0.9-0.9h1.9c0.5,0,0.9,0.4,0.9,0.9V30.1z M29.2,30.1h-1.9V17h1.9
		V30.1z M26.4,13.9c0.1-0.8,0.7-1.6,1.9-2.4c1.2,0.8,1.9,1.7,1.9,2.5c0,0.5-0.2,0.9-0.4,1.1h-2.9C26.6,14.9,26.3,14.4,26.4,13.9z
		 M13.8,9.4c0.8-0.7,1.7-1.4,2.2-1.7c0.5,0.4,1.4,1,2.2,1.7c2.2,2,2.5,3,2.5,3.4c0,0.9-0.4,1.6-1.3,2.3h-6.9
		c-0.9-0.7-1.3-1.4-1.3-2.3C11.3,12.4,11.6,11.4,13.8,9.4L13.8,9.4z M13.2,17h5.6v1.9h-5.6L13.2,17z M11.3,20.7h9.4v1.9h-9.4
		L11.3,20.7z M25.4,24.5v5.6h-1.9v-2.8c0-0.5-0.4-0.9-0.9-0.9s-0.9,0.4-0.9,0.9v2.8h-1.9v-0.9c0-1.6-1.3-2.8-2.8-2.8h-1.9
		c-1.6,0-2.8,1.3-2.8,2.8v0.9h-1.9v-2.8c0-0.5-0.4-0.9-0.9-0.9c-0.5,0-0.9,0.4-0.9,0.9v2.8H6.6v-5.6H25.4z M3.7,11.5
		c1.1,0.8,1.8,1.6,1.9,2.4c0,0.5-0.2,1-0.4,1.2H2.3c-0.2-0.2-0.4-0.6-0.4-1.1C1.9,13.2,2.5,12.3,3.7,11.5L3.7,11.5z"/>
</g>
</svg>
