<?xml version="1.0" encoding="utf-8"?>
<!-- Generator: Adobe Illustrator 20.0.0, SVG Export Plug-In . SVG Version: 6.00 Build 0)  -->
<!DOCTYPE svg PUBLIC "-//W3C//DTD SVG 1.1//EN" "http://www.w3.org/Graphics/SVG/1.1/DTD/svg11.dtd">
<svg version="1.1" id="shalat" xmlns="http://www.w3.org/2000/svg" xmlns:xlink="http://www.w3.org/1999/xlink" x="0px" y="0px"
	 viewBox="0 0 32 32" style="enable-background:new 0 0 32 32;" xml:space="preserve">
<g>
	<path d="M8.5,0C8,0,7.6,0.4,7.6,0.9v30.1C7.6,31.6,8,32,8.5,32s0.9-0.4,0.9-0.9v-2.9h1.9v2.9c0,0.5,0.4,0.9,0.9,0.9
		s0.9-0.4,0.9-0.9v-2.9h1.9v2.9c0,0.5,0.4,0.9,0.9,0.9s0.9-0.4,0.9-0.9v-2.9h1.9v2.9c0,0.5,0.4,0.9,0.9,0.9s0.9-0.4,0.9-0.9v-2.9
		h1.9v2.9c0,0.5,0.4,0.9,0.9,0.9s0.9-0.4,0.9-0.9c0-1.3,0-28.8,0-30.1C24.4,0.4,24,0,23.5,0s-0.9,0.4-0.9,0.9v2.9h-1.9V0.9
		c0-0.5-0.4-0.9-0.9-0.9s-0.9,0.4-0.9,0.9v2.9h-1.9V0.9C16.9,0.4,16.5,0,16,0s-0.9,0.4-0.9,0.9v2.9h-1.9V0.9c0-0.5-0.4-0.9-0.9-0.9
		s-0.9,0.4-0.9,0.9v2.9H9.4V0.9C9.4,0.4,9,0,8.5,0z M22.6,26.3H9.4V5.7h13.1V26.3z"/>
	<path d="M19.8,11.3h-1.2c-0.3-1.3-1-2.5-1.9-3.5c-0.4-0.4-1-0.4-1.3,0c-0.9,0.9-1.6,2.2-1.9,3.5h-1.2c-0.5,0-0.9,0.4-0.9,0.9v7.5
		c0,0.5,0.4,0.9,0.9,0.9h1.2c0.3,1.3,1,2.5,1.9,3.5c0.2,0.2,0.4,0.3,0.7,0.3c0.2,0,0.5-0.1,0.7-0.3c0.9-0.9,1.6-2.2,1.9-3.5h1.2
		c0.5,0,0.9-0.4,0.9-0.9v-7.5C20.7,11.7,20.3,11.3,19.8,11.3z M18.8,18.8h-1c-0.5,0-0.9,0.4-0.9,0.8c-0.1,0.9-0.4,1.7-0.9,2.4
		c-0.5-0.7-0.8-1.5-0.9-2.4c-0.1-0.5-0.5-0.8-0.9-0.8h-1v-5.6h1c0.5,0,0.9-0.4,0.9-0.8c0.1-0.9,0.4-1.7,0.9-2.4
		c0.5,0.7,0.8,1.5,0.9,2.4c0.1,0.5,0.5,0.8,0.9,0.8h1V18.8z"/>
	<circle cx="12.3" cy="23.5" r="0.9"/>
	<circle cx="19.8" cy="23.5" r="0.9"/>
	<circle cx="19.8" cy="8.5" r="0.9"/>
	<circle cx="12.3" cy="8.5" r="0.9"/>
</g>
</svg>
