<?xml version="1.0" encoding="utf-8"?>
<!-- Generator: Adobe Illustrator 20.0.0, SVG Export Plug-In . SVG Version: 6.00 Build 0)  -->
<!DOCTYPE svg PUBLIC "-//W3C//DTD SVG 1.1//EN" "http://www.w3.org/Graphics/SVG/1.1/DTD/svg11.dtd">
<svg version="1.1" id="Layer_1" xmlns="http://www.w3.org/2000/svg" xmlns:xlink="http://www.w3.org/1999/xlink" x="0px" y="0px"
	 viewBox="0 0 32 32" style="enable-background:new 0 0 32 32;" xml:space="preserve">
<g>
	<path d="M6.6,32h18.8c0.5,0,0.9-0.4,0.9-0.9v-3.8c0-3.3-2.4-6-5.6-6.5v-1c0,0,0,0,0,0c1.1-0.9,1.9-2.2,1.9-3.7V2.8
		c0-1.6-1.3-2.8-2.8-2.8h-7.5c-1.6,0-2.8,1.3-2.8,2.8V16c0,1.5,0.7,2.9,1.9,3.7c0,0,0,0,0,0v1c-3.2,0.5-5.6,3.2-5.6,6.5v3.8
		C5.7,31.6,6.1,32,6.6,32z M19.8,22.6c2.6,0,4.7,2.1,4.7,4.7v2.9h-7.5v-9.4h0.9c0.3,0,0.6,0,0.9-0.1v1
		C18.8,22.1,19.2,22.6,19.8,22.6z M11.3,9.4h5.5c-0.4,1.1-1.4,1.9-2.7,1.9h-2.8L11.3,9.4z M20.7,11.2c-0.8-0.3-1.4-0.9-1.7-1.7h1.7
		V11.2z M12.3,1.9h7.5c0.5,0,0.9,0.4,0.9,0.9v4.8h-9.4V2.8C11.3,2.3,11.7,1.9,12.3,1.9z M11.3,13.2h2.8c1.5,0,2.9-0.7,3.8-1.9
		c0.7,0.9,1.7,1.6,2.8,1.8V16c0,1.6-1.3,2.8-2.8,2.8h-3.8c-1.6,0-2.8-1.3-2.8-2.8V13.2z M7.6,27.3c0-2.6,2.1-4.7,4.7-4.7
		c0.5,0,0.9-0.4,0.9-0.9v-1c0.3,0.1,0.6,0.1,0.9,0.1h0.9v9.4H7.6V27.3z"/>
</g>
</svg>
