<svg width="28" height="37" viewBox="0 0 28 37" fill="none" xmlns="http://www.w3.org/2000/svg">
<g clip-path="url(#clip0)">
<path d="M26.2447 16.0497L27.8988 11.1624C27.9953 10.878 28.0217 10.5751 27.9759 10.2786C27.93 9.98222 27.8133 9.70077 27.6353 9.45748C27.4572 9.2142 27.223 9.01605 26.9519 8.87937C26.6807 8.74269 26.3805 8.6714 26.0759 8.67136H23.9115V4.98582C23.9115 4.58845 23.7991 4.19893 23.5868 3.86094C23.3746 3.52294 23.0708 3.24983 22.7097 3.07222L19.3758 1.43179C19.2132 0.986294 18.9069 0.605425 18.5038 0.347349C18.1006 0.0892733 17.6227 -0.0318236 17.143 0.0025518C16.6634 0.0369272 16.2083 0.224886 15.8474 0.537722C15.4865 0.850559 15.2395 1.27108 15.1442 1.73506C15.0488 2.19905 15.1104 2.68099 15.3195 3.10729C15.5285 3.53359 15.8736 3.88082 16.302 4.09595C16.7304 4.31108 17.2186 4.38229 17.6919 4.29869C18.1653 4.2151 18.5978 3.9813 18.9235 3.633L20.5072 4.41275C20.8683 4.59036 21.172 4.86347 21.3843 5.20146C21.5966 5.53946 21.709 5.92898 21.709 6.32634V8.67136H6.29131V6.32779C6.2913 5.93042 6.40373 5.5409 6.61601 5.20291C6.82829 4.86491 7.13202 4.5918 7.49316 4.4142L9.07677 3.63445C9.40247 3.98275 9.83503 4.21655 10.3084 4.30014C10.7818 4.38373 11.2699 4.31253 11.6983 4.0974C12.1267 3.88227 12.4718 3.53504 12.6808 3.10874C12.8899 2.68243 12.9515 2.20049 12.8562 1.73651C12.7608 1.27252 12.5138 0.852005 12.1529 0.539168C11.792 0.226331 11.3369 0.0383725 10.8573 0.00399711C10.3776 -0.0303783 9.89973 0.0907187 9.49656 0.348794C9.0934 0.60687 8.78713 0.98774 8.62452 1.43324L5.2899 3.07439C4.92923 3.25193 4.62587 3.52475 4.41375 3.86232C4.20163 4.19989 4.08911 4.58889 4.08878 4.98582V8.67136H1.9237C1.61903 8.67128 1.3187 8.74249 1.04748 8.87912C0.776264 9.01575 0.541931 9.21389 0.363807 9.45719C0.185683 9.70049 0.0688706 9.98199 0.023004 10.2785C-0.0228626 10.5749 0.00353046 10.8779 0.100007 11.1624L1.75557 16.0497C1.88317 16.4264 2.12797 16.7541 2.45528 16.9862C2.78259 17.2184 3.17582 17.3433 3.57927 17.3432H4.08878V30.4956C3.50464 30.4956 2.94442 30.724 2.53136 31.1306C2.11831 31.5371 1.88626 32.0886 1.88626 32.6636V34.8315C1.88626 35.4065 2.11831 35.9579 2.53136 36.3645C2.94442 36.7711 3.50464 36.9995 4.08878 36.9995H23.9115C24.4957 36.9995 25.0559 36.7711 25.469 36.3645C25.882 35.9579 26.1141 35.4065 26.1141 34.8315V32.6636C26.1141 32.0886 25.882 31.5371 25.469 31.1306C25.0559 30.724 24.4957 30.4956 23.9115 30.4956V17.3432H24.4211C24.8245 17.3433 25.2177 17.2184 25.545 16.9862C25.8724 16.7541 26.1171 16.4264 26.2447 16.0497ZM2.31281 10.8393H25.6875L24.2192 15.1753H3.78116L2.31281 10.8393ZM22.8103 34.8315H5.19005C4.89797 34.8315 4.61786 34.7173 4.41134 34.514C4.20481 34.3107 4.08878 34.035 4.08878 33.7475C4.08878 33.46 4.20481 33.1843 4.41134 32.981C4.61786 32.7778 4.89797 32.6636 5.19005 32.6636H22.8103C23.1023 32.6636 23.3825 32.7778 23.589 32.981C23.7955 33.1843 23.9115 33.46 23.9115 33.7475C23.9115 34.035 23.7955 34.3107 23.589 34.514C23.3825 34.7173 23.1023 34.8315 22.8103 34.8315ZM21.709 30.4956H6.29131V17.3432H21.709V30.4956Z" fill="white"/>
<path d="M13.7107 28.2465C14.6044 28.3044 15.4949 28.0926 16.2632 27.6396C17.0316 27.1866 17.6414 26.5137 18.0114 25.7108C18.3813 24.9079 18.4938 24.0131 18.3338 23.1456C18.1739 22.2782 17.7491 21.4793 17.1161 20.8556C16.4831 20.2319 15.672 19.8129 14.7909 19.6545C13.9098 19.4961 13.0006 19.6059 12.1845 19.9692C11.3684 20.3325 10.6842 20.932 10.2231 21.6878C9.76199 22.4437 9.54594 23.3199 9.60372 24.1997C9.67362 25.2496 10.1286 26.2388 10.8841 26.9832C11.6396 27.7277 12.6441 28.1766 13.7107 28.2465ZM13.8201 21.7585C14.2695 21.7224 14.7194 21.8229 15.1089 22.0465C15.4984 22.2701 15.8088 22.606 15.9981 23.0088C16.1875 23.4116 16.2467 23.8619 16.1678 24.2989C16.0888 24.7359 15.8755 25.1385 15.5567 25.4523C15.2379 25.7661 14.8288 25.9761 14.3849 26.0538C13.941 26.1315 13.4835 26.0732 13.0743 25.8868C12.665 25.7004 12.3238 25.3949 12.0967 25.0115C11.8695 24.6281 11.7674 24.1853 11.804 23.7429C11.8467 23.2307 12.0728 22.7501 12.4421 22.3868C12.8113 22.0234 13.2997 21.801 13.8201 21.7592V21.7585Z" fill="white"/>
</g>
<defs>
<clipPath id="clip0">
<rect width="28" height="37" fill="white"/>
</clipPath>
</defs>
</svg>
